<?xml version="1.0" encoding="UTF-8" standalone="no"?>
<!DOCTYPE svg PUBLIC "-//W3C//DTD SVG 1.1//EN" "http://www.w3.org/Graphics/SVG/1.1/DTD/svg11.dtd">
<svg version="1.1" xmlns="http://www.w3.org/2000/svg" xmlns:xlink="http://www.w3.org/1999/xlink" preserveAspectRatio="xMidYMid meet" viewBox="0 0 640 640" width="640" height="640"><defs><path d="M497.83 22.33L490.83 23.95L303.02 67.74C301.42 69.92 300.53 71.13 300.36 71.37C300.36 71.37 284.46 93.06 270.03 120.12C262.81 133.66 255.89 148.58 251.43 163.38C246.96 178.18 244.56 193.05 248.71 206.97C248.74 207.05 248.87 207.49 249.1 208.27C249.5 208.97 249.72 209.36 249.76 209.44C249.76 209.44 270.92 247.71 292.07 270.16C297.56 277.44 325.01 313.85 374.41 379.39C451.2 357.18 493.86 344.85 502.39 342.38C535.59 337.01 571.26 323.97 571.26 323.97C571.37 323.93 571.95 323.72 572.99 323.35C573.87 322.67 574.36 322.3 574.46 322.22C585.98 313.42 593.22 299.88 599.18 284.83C605.14 269.79 609.51 252.93 612.82 237.01C619.42 205.17 621.7 176.77 621.7 176.77C621.72 176.44 621.85 174.79 622.09 171.82L497.83 22.33Z" id="e7kwRvsNKr"></path><path d="M609.85 176.15L609.8 176.75L609.71 177.74L609.58 179.08L609.42 180.77L609.21 182.78L608.96 185.09L608.67 187.7L608.33 190.57L607.95 193.7L607.51 197.05L607.03 200.62L606.5 204.39L605.91 208.33L605.27 212.43L604.57 216.67L603.82 221.03L603.01 225.5L602.14 230.05L601.21 234.67L600.21 239.33L599.15 244.03L598.02 248.73L596.83 253.43L595.57 258.1L594.24 262.73L592.84 267.3L591.36 271.78L589.81 276.17L588.18 280.44L586.48 284.57L584.7 288.55L582.83 292.35L580.89 295.96L578.86 299.37L576.75 302.54L574.55 305.47L572.26 308.13L569.89 310.51L567.42 312.59L567.35 312.61L567.16 312.68L566.83 312.8L566.39 312.95L565.82 313.15L565.14 313.39L564.35 313.66L563.45 313.97L562.44 314.32L561.33 314.69L560.13 315.09L558.84 315.52L557.45 315.98L555.98 316.45L554.43 316.95L552.8 317.47L551.09 318L549.32 318.55L547.47 319.12L545.57 319.69L543.6 320.28L541.58 320.87L539.51 321.47L537.39 322.07L535.22 322.67L533.02 323.27L530.77 323.87L528.5 324.47L526.19 325.06L523.86 325.64L521.51 326.21L519.14 326.77L516.75 327.31L514.35 327.84L511.95 328.35L509.54 328.84L507.13 329.31L504.73 329.76L502.34 330.18L499.95 330.57L379.02 365.53L301.23 262.33L299.79 260.79L298.33 259.18L296.87 257.51L295.41 255.79L293.95 254.02L292.48 252.21L291.02 250.35L289.57 248.47L288.13 246.56L286.69 244.62L285.27 242.67L283.87 240.71L282.48 238.74L281.11 236.78L279.76 234.82L278.44 232.87L277.15 230.93L275.88 229.02L274.65 227.13L273.44 225.28L272.28 223.46L271.15 221.69L270.07 219.96L269.02 218.29L268.03 216.68L267.08 215.13L266.18 213.66L265.33 212.26L264.54 210.94L263.8 209.7L263.12 208.56L262.51 207.52L261.95 206.57L261.47 205.74L261.05 205.02L260.7 204.42L260.43 203.94L260.23 203.59L260.11 203.38L260.07 203.31L259.3 200.2L258.8 196.94L258.55 193.54L258.54 190.01L258.75 186.36L259.18 182.61L259.8 178.76L260.62 174.84L261.61 170.84L262.76 166.79L264.07 162.69L265.51 158.56L267.07 154.41L268.75 150.25L270.52 146.09L272.38 141.95L274.32 137.84L276.31 133.76L278.36 129.74L280.44 125.78L282.54 121.9L284.65 118.1L286.76 114.4L288.85 110.82L290.91 107.36L292.94 104.04L294.91 100.86L296.81 97.84L298.63 95L300.37 92.34L301.99 89.87L303.5 87.62L304.88 85.58L306.12 83.78L307.2 82.22L308.12 80.92L308.85 79.88L309.39 79.13L309.72 78.67L309.84 78.51L493.32 35.74L609.87 175.94L609.85 176.15ZM343.03 300L342.96 300.45L343.04 301.08L343.25 301.84L343.53 302.7L343.88 303.63L344.31 304.64L344.8 305.72L345.35 306.87L345.97 308.08L346.64 309.35L347.38 310.66L348.16 312.03L349 313.44L349.89 314.88L350.83 316.36L351.81 317.86L352.83 319.38L353.88 320.92L354.98 322.47L356.11 324.03L357.27 325.6L358.46 327.15L359.67 328.7L360.91 330.24L362.17 331.76L363.44 333.26L364.73 334.73L366.04 336.16L367.35 337.56L368.67 338.91L370 340.22L371.33 341.48L372.66 342.67L373.98 343.81L375.3 344.87L376.61 345.87L377.92 346.78L379.21 347.61L380.48 348.36L381.73 349.01L382.97 349.57L384.18 350.02L385.38 350.38L386.65 350.68L387.98 350.91L389.36 351.09L390.8 351.21L392.29 351.28L393.83 351.3L395.41 351.26L397.02 351.18L398.68 351.05L400.37 350.87L402.08 350.65L403.83 350.39L405.59 350.09L407.38 349.75L409.18 349.38L411 348.97L412.82 348.53L414.66 348.06L416.49 347.56L418.33 347.04L420.16 346.49L421.98 345.92L423.79 345.33L425.59 344.72L427.37 344.1L429.13 343.46L430.87 342.8L432.58 342.14L434.26 341.46L435.9 340.78L437.51 340.1L439.07 339.41L440.6 338.71L442.07 338.02L443.49 337.33L444.86 336.65L446.18 335.97L447.43 335.3L448.61 334.64L449.45 334.12L450.04 333.67L450.39 333.29L450.51 332.96L450.41 332.7L450.1 332.49L449.6 332.33L448.91 332.21L448.04 332.15L447.01 332.12L445.82 332.14L444.49 332.19L443.03 332.27L441.45 332.38L439.75 332.51L437.96 332.67L436.08 332.85L434.12 333.05L432.09 333.25L430 333.47L427.87 333.7L425.7 333.92L423.51 334.15L421.31 334.38L419.1 334.6L416.9 334.81L414.72 335.01L412.57 335.19L410.46 335.35L408.4 335.49L406.4 335.61L404.48 335.7L402.64 335.76L400.89 335.78L399.25 335.76L397.73 335.7L396.33 335.6L395.07 335.45L393.96 335.25L393 335L392.17 334.68L391.23 334.23L390.19 333.66L389.04 332.98L387.81 332.19L386.49 331.3L385.1 330.32L383.64 329.26L382.12 328.13L380.54 326.94L378.92 325.68L377.25 324.38L375.56 323.04L373.83 321.66L372.09 320.26L370.33 318.85L368.57 317.42L366.81 316L365.06 314.58L363.33 313.18L361.62 311.81L359.94 310.46L358.3 309.16L356.71 307.9L355.16 306.71L353.68 305.57L352.26 304.51L350.91 303.54L349.64 302.65L348.47 301.85L347.38 301.17L346.4 300.59L345.52 300.14L344.77 299.82L344.13 299.64L343.63 299.6L343.26 299.72L343.03 300ZM381.6 166.88L379.47 168.42L377.36 169.99L375.28 171.58L373.23 173.21L371.21 174.85L369.23 176.52L367.28 178.2L365.36 179.9L363.48 181.61L361.64 183.33L359.83 185.05L358.07 186.79L356.35 188.52L354.67 190.25L353.04 191.97L351.45 193.69L349.91 195.41L348.42 197.1L346.98 198.79L345.58 200.45L344.24 202.1L342.96 203.72L341.73 205.32L340.55 206.89L339.43 208.42L338.37 209.93L337.37 211.39L336.44 212.82L335.56 214.21L334.75 215.55L334.01 216.84L333.33 218.08L332.72 219.27L332.18 220.41L331.71 221.49L331.31 222.5L330.98 223.45L330.73 224.34L330.04 225.57L329.43 226.87L328.9 228.25L328.46 229.69L328.11 231.2L327.83 232.77L327.62 234.39L327.5 236.06L327.44 237.78L327.45 239.54L327.54 241.34L327.68 243.17L327.9 245.03L328.17 246.91L328.5 248.81L328.89 250.73L329.33 252.66L329.83 254.59L330.37 256.53L330.97 258.46L331.61 260.39L332.29 262.3L333.02 264.2L333.78 266.08L334.58 267.93L335.42 269.76L336.29 271.55L337.18 273.31L338.11 275.02L339.06 276.68L340.04 278.3L341.04 279.86L342.05 281.36L343.09 282.79L344.13 284.16L345.2 285.45L346.27 286.67L347.35 287.8L348.43 288.85L349.52 289.8L350.76 290.83L352 291.85L353.24 292.85L354.47 293.83L355.7 294.8L356.92 295.75L358.14 296.69L359.36 297.61L360.58 298.52L361.79 299.4L362.99 300.28L364.2 301.14L365.4 301.98L366.59 302.8L367.79 303.61L368.97 304.4L370.16 305.17L371.34 305.93L372.51 306.67L373.69 307.4L374.85 308.1L376.02 308.79L377.18 309.46L378.33 310.12L379.48 310.75L380.63 311.37L381.77 311.97L382.9 312.56L384.03 313.12L385.16 313.67L386.28 314.2L387.4 314.71L388.51 315.2L389.62 315.67L390.72 316.12L391.82 316.56L392.91 316.97L394 317.37L395.08 317.75L396.15 318.11L397.41 318.5L398.68 318.89L399.98 319.27L401.3 319.63L402.64 319.99L404 320.33L405.39 320.66L406.79 320.98L408.22 321.29L409.67 321.59L411.13 321.87L412.62 322.14L414.13 322.4L415.65 322.65L417.2 322.88L418.76 323.1L420.34 323.31L421.94 323.5L423.55 323.68L425.19 323.84L426.84 323.99L428.5 324.13L430.19 324.25L431.89 324.36L433.6 324.45L435.33 324.52L437.08 324.59L438.84 324.63L440.61 324.66L442.4 324.67L444.2 324.67L446.02 324.65L447.84 324.62L449.69 324.57L451.54 324.5L453.41 324.41L455.28 324.31L457.17 324.19L459.07 324.05L460.99 323.89L462.68 323.71L464.39 323.48L466.11 323.19L467.83 322.84L469.56 322.43L471.29 321.97L473.02 321.46L474.75 320.9L476.47 320.28L478.18 319.61L479.88 318.9L481.57 318.14L483.24 317.33L484.89 316.48L486.52 315.58L488.13 314.64L489.71 313.66L491.27 312.63L492.79 311.57L494.28 310.47L495.73 309.33L497.14 308.15L498.51 306.94L499.84 305.69L501.12 304.42L502.36 303.11L503.54 301.76L504.67 300.39L505.74 299L506.75 297.57L507.7 296.12L508.59 294.64L509.41 293.14L510.16 291.61L510.83 290.07L511.44 288.5L511.97 286.91L512.41 285.31L512.78 283.69L513.06 282.05L513.24 281.51L513.41 280.91L513.57 280.25L513.73 279.55L513.88 278.79L514.02 277.98L514.15 277.12L514.27 276.21L514.38 275.26L514.48 274.25L514.56 273.21L514.63 272.11L514.68 270.98L514.72 269.8L514.74 268.58L514.73 267.33L514.71 266.03L514.67 264.7L514.6 263.33L514.51 261.93L514.4 260.5L514.26 259.03L514.1 257.53L513.9 256L513.68 254.45L513.43 252.86L513.15 251.25L512.84 249.62L512.49 247.96L512.11 246.28L511.7 244.57L511.25 242.85L510.76 241.11L510.24 239.35L509.68 237.57L509.07 235.78L508.43 233.97L507.74 232.15L507.01 230.32L506.24 228.48L505.81 230.56L505.37 232.61L504.9 234.62L504.41 236.6L503.9 238.55L503.37 240.47L502.81 242.35L502.23 244.2L501.63 246.02L501.01 247.81L500.37 249.56L499.7 251.29L499.01 252.98L498.3 254.64L497.57 256.27L496.81 257.87L496.04 259.44L495.23 260.97L494.41 262.48L493.57 263.96L492.7 265.4L491.81 266.82L490.9 268.21L489.96 269.57L489 270.89L488.02 272.19L487.02 273.46L485.99 274.7L484.94 275.92L483.87 277.1L482.78 278.25L481.66 279.38L480.52 280.48L479.36 281.55L478.17 282.59L476.96 283.61L475.73 284.59L474.47 285.55L473.19 286.49L471.89 287.39L470.57 288.28L469.24 289.14L467.9 289.95L466.57 290.72L465.23 291.44L463.9 292.13L462.56 292.78L461.22 293.39L459.87 293.96L458.53 294.49L457.19 294.98L455.85 295.44L454.5 295.86L453.16 296.24L451.82 296.59L450.47 296.9L449.13 297.17L447.79 297.42L446.45 297.62L445.12 297.79L443.78 297.93L442.45 298.04L441.12 298.11L439.79 298.15L438.47 298.16L437.15 298.14L435.83 298.09L434.51 298.01L433.2 297.89L431.9 297.75L430.59 297.58L429.3 297.38L428.01 297.15L426.72 296.9L425.44 296.62L424.16 296.31L422.89 295.97L421.63 295.61L420.37 295.22L419.12 294.81L417.81 294.35L416.51 293.86L415.22 293.34L413.94 292.79L412.67 292.21L411.41 291.6L410.16 290.96L408.91 290.29L407.69 289.58L406.47 288.85L405.26 288.08L404.07 287.28L402.89 286.44L401.72 285.57L400.56 284.67L399.42 283.74L398.3 282.77L397.18 281.76L396.08 280.73L395 279.65L393.93 278.54L392.88 277.4L391.85 276.22L390.83 275L389.83 273.75L388.84 272.46L387.88 271.13L386.93 269.76L386 268.36L385.09 266.92L384.19 265.44L383.32 263.92L382.47 262.37L381.64 260.77L380.82 259.13L380.03 257.46L379.26 255.74L378.52 253.98L377.79 252.18L377.09 250.34L376.38 248.41L375.72 246.48L375.1 244.55L374.53 242.62L374 240.69L373.51 238.76L373.06 236.83L372.66 234.91L372.3 232.98L371.98 231.06L371.7 229.13L371.47 227.21L371.28 225.28L371.13 223.35L371.02 221.42L370.95 219.5L370.93 217.57L370.94 215.63L371 213.7L371.1 211.77L371.24 209.83L371.43 207.89L371.65 205.95L371.92 204.01L372.22 202.06L372.57 200.11L372.96 198.16L373.39 196.2L373.85 194.24L374.36 192.28L374.92 190.31L375.51 188.34L376.14 186.36L376.81 184.38L377.52 182.39L378.27 180.4L379.06 178.4L379.9 176.4L380.77 174.4L381.68 172.38L381.78 172.17L381.88 171.95L381.98 171.73L382.08 171.52L382.19 171.3L382.29 171.08L382.39 170.87L382.49 170.65L382.6 170.44L382.7 170.22L382.81 170.01L382.91 169.79L383.01 169.58L383.12 169.37L383.22 169.15L383.33 168.94L383.44 168.73L383.54 168.52L383.65 168.3L383.75 168.09L383.86 167.88L383.97 167.67L384.08 167.46L384.18 167.25L384.29 167.04L384.4 166.83L384.51 166.62L384.62 166.41L384.73 166.2L384.84 165.99L384.95 165.78L385.06 165.57L385.17 165.36L385.28 165.16L385.39 164.95L385.5 164.74L385.61 164.53L385.72 164.33L385.83 164.12L385.95 163.91L383.76 165.38L381.6 166.88ZM524.83 291.24L523.28 291.84L521.59 292.68L519.8 293.74L517.93 294.99L516.01 296.4L514.07 297.93L512.15 299.57L510.27 301.28L508.47 303.03L506.77 304.79L505.22 306.53L503.82 308.22L502.63 309.83L501.66 311.33L500.95 312.7L500.54 313.89L500.44 314.89L500.69 315.67L501.33 316.18L502.37 316.41L503.86 316.32L505.59 316.05L507.34 315.75L509.11 315.42L510.89 315.06L512.67 314.68L514.46 314.29L516.25 313.87L518.04 313.44L519.83 313.01L521.6 312.56L523.36 312.11L525.1 311.66L526.82 311.2L528.52 310.76L530.19 310.31L531.83 309.88L533.43 309.46L534.99 309.05L536.52 308.67L537.99 308.3L539.42 307.96L540.71 307.51L541.68 306.89L542.36 306.11L542.75 305.19L542.88 304.15L542.77 303.03L542.44 301.84L541.91 300.61L541.18 299.36L540.29 298.11L539.26 296.89L538.09 295.71L536.81 294.61L535.44 293.61L533.99 292.73L532.49 291.99L530.96 291.41L529.4 291.03L527.85 290.86L526.32 290.92L524.83 291.24ZM502.65 68.72L501.74 69.91L501.14 71.68L500.87 74.06L500.81 76.86L500.81 79.91L500.88 83.19L501.02 86.68L501.21 90.39L501.45 94.29L501.75 98.39L502.11 102.65L502.51 107.09L502.95 111.68L503.44 116.42L503.97 121.3L504.54 126.3L505.14 131.42L505.78 136.64L506.44 141.96L507.14 147.36L507.85 152.83L508.59 158.37L509.36 163.96L510.13 169.59L510.92 175.25L511.73 180.94L512.54 186.63L513.36 192.33L514.18 198.02L515.01 203.68L515.83 209.32L516.65 214.92L517.46 220.46L518.26 225.94L519.05 231.35L519.83 236.68L520.59 241.91L521.33 247.04L522.04 252.06L522.74 256.95L523.4 261.71L524.04 266.32L524.64 270.78L524.75 271.35L524.94 271.97L525.2 272.65L525.53 273.37L525.93 274.14L526.4 274.95L526.92 275.79L527.51 276.66L528.15 277.57L528.84 278.5L529.58 279.44L530.37 280.41L531.2 281.39L532.06 282.37L532.97 283.36L533.91 284.36L534.88 285.35L535.88 286.33L536.91 287.3L537.95 288.26L539.02 289.2L540.1 290.12L541.19 291.01L542.29 291.87L543.4 292.69L544.51 293.48L545.62 294.23L546.72 294.93L547.83 295.58L548.92 296.18L550 296.72L551.07 297.21L552.11 297.62L553.14 297.97L554.14 298.24L555.12 298.44L556.06 298.55L556.97 298.59L557.84 298.53L558.68 298.38L561.45 297.54L564.08 296.4L566.58 294.97L568.95 293.28L571.2 291.33L573.32 289.14L575.33 286.73L577.22 284.12L578.99 281.33L580.66 278.36L582.23 275.23L583.69 271.97L585.05 268.59L586.32 265.09L587.5 261.51L588.58 257.86L589.59 254.15L590.51 250.39L591.35 246.62L592.12 242.83L592.82 239.06L593.45 235.3L594.02 231.59L594.53 227.94L594.98 224.36L595.37 220.87L595.71 217.48L596.01 214.22L596.26 211.09L596.48 208.12L596.65 205.32L596.79 202.71L596.91 200.31L596.99 198.12L597.05 196.17L597.1 194.47L597.12 193.05L597.13 191.9L597.14 191.06L597.13 190.54L596.94 188.8L596.41 186.68L595.56 184.18L594.4 181.35L592.97 178.2L591.27 174.77L589.32 171.08L587.13 167.15L584.74 163.01L582.15 158.69L579.38 154.22L576.45 149.61L573.38 144.9L570.19 140.11L566.88 135.27L563.49 130.41L560.02 125.55L556.5 120.71L552.95 115.93L549.37 111.22L545.79 106.62L542.23 102.16L538.7 97.85L535.22 93.72L531.81 89.8L528.49 86.13L525.27 82.71L522.17 79.58L519.21 76.77L516.41 74.29L513.78 72.19L511.34 70.47L509.11 69.18L507.11 68.33L505.36 67.95L503.87 68.07L502.65 68.72ZM296.28 219.83L294.82 220.02L293.44 220.31L292.15 220.68L290.97 221.13L289.92 221.66L289.02 222.28L288.27 222.97L287.71 223.74L287.34 224.58L287.19 225.49L287.27 226.47L287.6 227.53L288.19 228.64L289.07 229.83L289.87 230.78L290.7 231.81L291.58 232.91L292.48 234.07L293.42 235.28L294.39 236.55L295.4 237.87L296.43 239.23L297.49 240.62L298.57 242.05L299.68 243.52L300.82 245L301.97 246.5L303.15 248.02L304.34 249.55L305.56 251.08L306.78 252.62L308.03 254.15L309.28 255.67L310.55 257.17L311.83 258.66L313.12 260.13L314.41 261.56L315.71 262.96L317.02 264.33L318.32 265.65L319.68 266.85L320.85 267.57L321.83 267.86L322.65 267.73L323.3 267.23L323.8 266.38L324.15 265.22L324.36 263.78L324.44 262.08L324.39 260.16L324.23 258.05L323.96 255.78L323.59 253.39L323.13 250.9L322.58 248.34L321.96 245.76L321.27 243.17L320.52 240.61L319.72 238.11L318.88 235.7L318 233.42L317.09 231.29L316.16 229.34L315.22 227.61L314.27 226.14L313.33 224.94L312.33 223.94L311.19 223.06L309.93 222.28L308.57 221.61L307.14 221.04L305.64 220.58L304.09 220.22L302.52 219.95L300.93 219.78L299.35 219.7L297.8 219.72L296.28 219.83ZM451.51 141.56L450.74 141.61L449.97 141.69L449.21 141.8L448.44 141.92L447.69 142.07L446.94 142.23L446.19 142.42L445.44 142.64L444.7 142.87L443.97 143.12L443.24 143.4L442.51 143.7L441.78 144.02L441.07 144.36L440.35 144.72L439.64 145.11L438.93 145.51L438.23 145.94L437.53 146.39L436.83 146.85L436.14 147.34L435.45 147.85L434.77 148.38L434.09 148.93L433.41 149.51L432.74 150.1L432.08 150.7L431.42 151.33L430.77 151.97L430.11 152.64L429.46 153.33L428.81 154.04L428.17 154.78L427.52 155.53L426.88 156.31L426.24 157.11L425.6 157.93L424.96 158.77L424.33 159.63L423.7 160.52L423.07 161.42L422.44 162.35L421.82 163.29L421.2 164.26L420.59 165.25L419.98 166.26L419.37 167.28L418.76 168.33L418.16 169.4L417.56 170.49L416.97 171.6L416.38 172.73L415.79 173.88L415.21 175.05L414.64 176.24L414.06 177.44L413.5 178.67L412.93 179.92L412.38 181.19L411.82 182.47L411.27 183.78L410.73 185.1L410.19 186.44L409.66 187.81L409.13 189.19L408.61 190.59L408.03 192.19L407.47 193.77L406.93 195.33L406.41 196.87L405.9 198.39L405.42 199.89L404.96 201.38L404.52 202.84L404.1 204.29L403.69 205.72L403.31 207.13L402.95 208.53L402.61 209.9L402.28 211.26L401.98 212.6L401.7 213.92L401.43 215.23L401.19 216.52L400.96 217.79L400.76 219.05L400.57 220.28L400.41 221.51L400.26 222.71L400.13 223.9L400.02 225.07L399.93 226.23L399.86 227.37L399.81 228.5L399.78 229.61L399.77 230.7L399.78 231.78L399.8 232.84L399.85 233.89L399.91 234.93L399.99 235.95L400.09 236.95L400.21 237.94L400.35 238.92L400.51 239.88L400.69 240.83L400.88 241.74L401.09 242.64L401.32 243.52L401.56 244.38L401.82 245.23L402.1 246.05L402.39 246.87L402.7 247.66L403.03 248.44L403.38 249.2L403.74 249.94L404.12 250.67L404.52 251.38L404.93 252.07L405.36 252.75L405.81 253.41L406.27 254.06L406.75 254.68L407.24 255.3L407.76 255.89L408.28 256.47L408.83 257.03L409.39 257.58L409.96 258.11L410.56 258.62L411.16 259.12L411.79 259.6L412.43 260.07L413.08 260.52L413.75 260.95L414.44 261.37L415.14 261.77L415.85 262.15L416.58 262.52L417.33 262.88L418.09 263.22L418.87 263.54L419.66 263.85L420.47 264.14L421.29 264.42L421.99 264.64L422.7 264.84L423.4 265.02L424.11 265.18L424.81 265.33L425.52 265.46L426.23 265.57L426.94 265.66L427.65 265.74L428.36 265.8L429.07 265.84L429.79 265.86L430.5 265.86L431.21 265.84L431.93 265.81L432.65 265.75L433.36 265.68L434.08 265.59L434.8 265.48L435.52 265.35L436.24 265.2L436.96 265.04L437.68 264.85L438.4 264.65L439.12 264.43L439.84 264.19L440.57 263.93L441.29 263.64L442.01 263.35L442.73 263.03L443.46 262.69L444.18 262.33L444.91 261.95L445.63 261.56L446.36 261.14L447.08 260.71L447.81 260.25L448.53 259.77L449.26 259.28L449.98 258.76L450.88 258.1L451.76 257.42L452.63 256.71L453.49 255.97L454.34 255.22L455.17 254.44L455.99 253.63L456.81 252.8L457.61 251.94L458.39 251.07L459.17 250.16L459.94 249.23L460.69 248.28L461.43 247.3L462.17 246.29L462.89 245.26L463.6 244.2L464.29 243.12L464.98 242.01L465.66 240.88L466.32 239.71L466.98 238.52L467.62 237.31L468.25 236.07L468.87 234.8L469.48 233.5L470.08 232.18L470.67 230.83L471.25 229.45L471.82 228.04L472.38 226.6L472.93 225.14L473.46 223.65L473.99 222.13L474.51 220.58L475.01 219L475.51 217.4L475.99 215.76L476.47 214.1L476.93 212.4L477.28 211.09L477.62 209.77L477.94 208.47L478.24 207.17L478.53 205.88L478.81 204.6L479.07 203.33L479.32 202.07L479.55 200.81L479.77 199.56L479.98 198.32L480.17 197.09L480.35 195.87L480.51 194.65L480.66 193.45L480.8 192.25L480.92 191.07L481.03 189.89L481.13 188.72L481.21 187.56L481.28 186.41L481.34 185.28L481.38 184.15L481.41 183.03L481.42 181.92L481.42 180.83L481.41 179.74L481.39 178.66L481.35 177.6L481.3 176.55L481.24 175.5L481.16 174.47L481.08 173.45L480.97 172.44L480.86 171.45L480.73 170.46L480.6 169.49L480.44 168.53L480.28 167.58L480.1 166.64L479.91 165.71L479.71 164.8L479.49 163.9L479.26 163.02L479.02 162.16L478.77 161.31L478.51 160.49L478.23 159.67L477.95 158.88L477.65 158.11L477.34 157.35L477.02 156.61L476.68 155.89L476.33 155.18L475.97 154.49L475.6 153.82L475.22 153.17L474.82 152.54L474.41 151.92L473.99 151.32L473.56 150.74L473.11 150.17L472.65 149.63L472.18 149.1L471.69 148.59L471.19 148.1L470.68 147.63L470.16 147.17L469.62 146.73L469.07 146.32L468.5 145.91L467.93 145.53L467.33 145.17L466.73 144.82L466.11 144.49L465.48 144.18L464.83 143.89L464.17 143.62L463.5 143.37L462.81 143.13L461.97 142.87L461.14 142.63L460.31 142.41L459.49 142.22L458.67 142.05L457.86 141.91L457.05 141.78L456.25 141.68L455.45 141.61L454.65 141.55L453.86 141.52L453.07 141.51L452.29 141.52L451.51 141.56ZM468.68 52.76L465.88 53.01L462.8 53.34L459.47 53.76L455.89 54.26L452.1 54.84L448.09 55.49L443.9 56.21L439.54 57L435.03 57.85L430.38 58.76L425.61 59.72L420.74 60.74L415.79 61.8L410.77 62.9L405.71 64.04L400.61 65.22L395.51 66.43L390.4 67.67L385.32 68.94L380.28 70.22L375.29 71.52L370.38 72.84L365.56 74.16L360.85 75.49L356.27 76.82L351.84 78.15L347.56 79.47L343.46 80.79L339.56 82.09L335.88 83.37L332.43 84.63L329.23 85.87L326.29 87.08L323.64 88.26L321.29 89.4L319.26 90.5L317.57 91.56L316.23 92.57L315.84 92.93L315.23 93.51L314.44 94.31L313.46 95.32L312.31 96.52L311.01 97.92L309.57 99.5L308.01 101.26L306.33 103.19L304.56 105.27L302.7 107.51L300.77 109.89L298.79 112.4L296.77 115.04L294.71 117.79L292.65 120.66L290.58 123.63L288.53 126.69L286.5 129.84L284.52 133.06L282.59 136.35L280.73 139.71L278.96 143.11L277.28 146.56L275.71 150.05L274.27 153.56L272.97 157.09L271.82 160.64L270.84 164.18L270.04 167.73L269.44 171.26L269.04 174.76L268.87 178.24L268.93 181.68L269.25 185.07L269.83 188.41L270.69 191.69L271.84 194.9L273.29 198.02L275.07 201.06L275.55 201.72L276.14 202.37L276.82 203.01L277.6 203.64L278.46 204.26L279.4 204.87L280.42 205.47L281.51 206.06L282.67 206.63L283.88 207.18L285.15 207.73L286.47 208.25L287.83 208.76L289.22 209.25L290.65 209.72L292.1 210.18L293.58 210.61L295.06 211.02L296.56 211.41L298.06 211.77L299.56 212.11L301.06 212.43L302.54 212.72L304 212.99L305.44 213.22L306.85 213.43L308.22 213.61L309.55 213.76L310.84 213.88L312.08 213.97L313.25 214.02L314.37 214.05L315.42 214.03L316.39 213.99L317.29 213.91L318.1 213.79L318.82 213.63L319.44 213.43L319.96 213.2L320.38 212.92L322.61 211.04L325.2 208.75L328.15 206.07L331.42 203.02L334.98 199.64L338.83 195.94L342.94 191.95L347.27 187.7L351.82 183.19L356.55 178.47L361.45 173.55L366.5 168.46L371.66 163.22L376.92 157.86L382.25 152.39L387.64 146.85L393.05 141.25L398.47 135.63L403.88 130L409.24 124.38L414.54 118.81L419.76 113.3L424.87 107.89L429.86 102.58L434.69 97.41L439.34 92.41L443.8 87.59L448.03 82.97L452.02 78.59L455.75 74.47L459.19 70.62L462.31 67.08L465.1 63.87L467.54 61.01L469.59 58.52L471.25 56.43L472.47 54.77L473.25 53.55L473.57 52.8L473.38 52.55L471.19 52.61L468.68 52.76ZM484.56 60.59L483.59 60.83L482.57 61.19L481.48 61.65L480.34 62.21L479.15 62.88L477.9 63.64L476.61 64.5L475.26 65.45L473.87 66.49L472.43 67.61L470.95 68.81L469.43 70.1L467.88 71.45L466.28 72.88L464.65 74.38L462.99 75.94L461.29 77.57L459.57 79.25L457.82 80.99L456.04 82.78L454.24 84.62L452.42 86.5L450.58 88.43L448.72 90.4L446.84 92.4L444.96 94.44L443.06 96.5L441.15 98.59L439.23 100.71L437.3 102.84L435.38 104.99L433.44 107.15L431.51 109.32L429.58 111.5L427.66 113.68L425.74 115.87L423.83 118.05L424.86 117.23L425.9 116.44L426.93 115.67L427.97 114.93L429 114.21L430.03 113.51L431.07 112.84L432.1 112.2L433.14 111.58L434.17 110.98L435.21 110.41L436.25 109.87L437.28 109.36L438.32 108.87L439.36 108.41L440.41 107.98L441.45 107.57L442.49 107.2L443.54 106.85L444.59 106.53L445.64 106.24L446.69 105.98L447.75 105.75L448.81 105.55L449.87 105.38L450.93 105.25L452 105.14L453.07 105.07L454.14 105.02L455.22 105.01L456.29 105.03L457.38 105.09L458.46 105.18L459.56 105.3L460.65 105.45L461.75 105.64L462.85 105.87L463.96 106.13L465.07 106.42L466.19 106.75L467.5 107.18L468.78 107.64L470.04 108.12L471.26 108.64L472.46 109.19L473.63 109.77L474.78 110.38L475.9 111.02L476.99 111.69L478.06 112.39L479.11 113.11L480.13 113.87L481.13 114.66L482.1 115.47L483.05 116.31L483.98 117.18L484.88 118.08L485.76 119L486.62 119.96L487.46 120.94L488.28 121.94L489.08 122.98L489.86 124.04L490.62 125.12L491.36 126.24L492.08 127.37L492.78 128.54L493.47 129.73L494.13 130.94L494.78 132.18L495.41 133.45L496.03 134.74L496.63 136.05L497.21 137.39L497.78 138.76L498.34 140.14L498.87 141.55L499.4 142.99L499.91 144.44L500.41 145.92L500.09 142.86L499.79 139.79L499.49 136.72L499.2 133.66L498.91 130.61L498.64 127.57L498.36 124.54L498.09 121.54L497.82 118.56L497.56 115.61L497.29 112.69L497.03 109.81L496.77 106.97L496.51 104.17L496.24 101.43L495.98 98.73L495.71 96.1L495.43 93.52L495.16 91.01L494.88 88.57L494.59 86.21L494.3 83.92L494 81.71L493.69 79.59L493.37 77.55L493.04 75.62L492.71 73.77L492.36 72.03L492 70.4L491.63 68.88L491.24 67.47L490.85 66.17L490.43 65L490.01 63.96L489.56 63.04L489.1 62.26L488.62 61.62L488.13 61.12L487.61 60.77L487.07 60.57L486.3 60.45L485.46 60.47L484.56 60.59Z" id="e8mc2ojb5"></path><path d="M193.73 169.12L187.71 175.69L26.67 352.14C26.56 355.48 26.5 357.34 26.49 357.72C26.49 357.72 25.48 391.01 29.73 428.77C31.85 447.65 35.25 467.74 41.08 485.99C46.9 504.23 54.87 521.1 68.88 532.4C68.97 532.47 69.4 532.82 70.19 533.45C71.08 533.89 71.58 534.14 71.68 534.18C71.68 534.18 120.13 558.42 157.48 566.5C168.2 570.09 221.76 588.01 318.17 620.28C381.01 543.74 415.91 501.21 422.9 492.71C453.02 463.94 480.29 425.6 480.29 425.6C480.38 425.48 480.83 424.86 481.62 423.75C482.05 422.45 482.29 421.72 482.34 421.58C487.93 404.5 485.82 385.6 481.35 366.06C476.88 346.51 469.53 326.24 461.73 307.66C446.14 270.51 428.54 239.92 428.54 239.92C428.33 239.57 427.31 237.79 425.48 234.59L193.73 169.12Z" id="a2ezdUyIYT"></path><path d="M416.01 247.6L416.38 248.25L416.98 249.32L417.79 250.78L418.81 252.61L420.01 254.81L421.38 257.35L422.9 260.22L424.57 263.39L426.37 266.85L428.28 270.58L430.3 274.56L432.39 278.78L434.56 283.22L436.78 287.86L439.05 292.67L441.34 297.66L443.64 302.79L445.94 308.04L448.23 313.41L450.49 318.87L452.7 324.41L454.85 330.01L456.93 335.64L458.92 341.3L460.81 346.96L462.58 352.6L464.22 358.22L465.71 363.78L467.04 369.28L468.2 374.7L469.17 380.01L469.94 385.2L470.49 390.25L470.8 395.15L470.87 399.87L470.68 404.4L470.21 408.73L469.46 412.82L468.39 416.67L468.34 416.74L468.19 416.95L467.94 417.3L467.6 417.77L467.16 418.37L466.63 419.09L466.01 419.93L465.31 420.88L464.52 421.93L463.65 423.09L462.71 424.34L461.69 425.69L460.59 427.13L459.42 428.65L458.19 430.24L456.89 431.92L455.52 433.66L454.09 435.47L452.61 437.34L451.07 439.26L449.47 441.23L447.82 443.26L446.12 445.32L444.38 447.42L442.59 449.56L440.76 451.72L438.89 453.9L436.99 456.11L435.04 458.33L433.07 460.56L431.07 462.79L429.04 465.03L426.99 467.26L424.91 469.48L422.81 471.68L420.7 473.87L418.57 476.04L416.43 478.18L414.28 480.29L412.12 482.36L313.16 602.89L161.34 552.09L158.78 551.53L156.17 550.9L153.51 550.22L150.81 549.49L148.07 548.71L145.31 547.88L142.52 547.02L139.71 546.11L136.9 545.17L134.08 544.2L131.26 543.21L128.45 542.19L125.65 541.16L122.87 540.11L120.12 539.05L117.4 537.99L114.72 536.92L112.09 535.85L109.5 534.79L106.98 533.74L104.51 532.7L102.12 531.68L99.8 530.68L97.56 529.71L95.41 528.76L93.36 527.85L91.4 526.98L89.56 526.14L87.82 525.35L86.2 524.61L84.71 523.91L83.35 523.28L82.12 522.71L81.04 522.19L80.11 521.75L79.34 521.38L78.72 521.09L78.28 520.87L78 520.74L77.91 520.69L74.95 518.06L72.15 515.08L69.5 511.79L67.01 508.19L64.67 504.31L62.48 500.18L60.42 495.82L58.5 491.23L56.71 486.46L55.04 481.51L53.5 476.41L52.07 471.19L50.75 465.85L49.55 460.43L48.44 454.94L47.44 449.4L46.53 443.85L45.71 438.29L44.97 432.75L44.32 427.24L43.74 421.81L43.23 416.45L42.79 411.2L42.42 406.07L42.1 401.09L41.83 396.27L41.61 391.65L41.44 387.23L41.31 383.05L41.21 379.12L41.14 375.46L41.1 372.1L41.09 369.05L41.08 366.34L41.09 363.99L41.11 362.02L41.14 360.45L41.16 359.3L41.18 358.6L41.18 358.36L198.53 185.97L415.88 247.38L416.01 247.6ZM361.93 519.48L361.15 519.85L360.22 520.39L359.15 521.09L357.95 521.93L356.62 522.92L355.19 524.03L353.65 525.25L352.01 526.58L350.29 528L348.5 529.5L346.63 531.07L344.71 532.71L342.73 534.4L340.71 536.12L338.66 537.87L336.58 539.64L334.49 541.42L332.39 543.19L330.29 544.95L328.2 546.68L326.13 548.38L324.09 550.03L322.09 551.61L320.13 553.13L318.23 554.57L316.39 555.92L314.62 557.17L312.94 558.3L311.34 559.31L309.84 560.19L308.45 560.92L307.17 561.5L306.02 561.91L304.95 562.16L303.68 562.37L302.21 562.52L300.56 562.62L298.75 562.68L296.78 562.7L294.68 562.68L292.44 562.62L290.09 562.53L287.64 562.42L285.11 562.28L282.49 562.11L279.82 561.94L277.09 561.74L274.33 561.53L271.54 561.32L268.75 561.1L265.95 560.88L263.17 560.66L260.42 560.45L257.71 560.24L255.05 560.04L252.46 559.87L249.95 559.7L247.54 559.56L245.23 559.45L243.03 559.36L240.97 559.31L239.06 559.29L237.3 559.31L235.71 559.37L234.3 559.47L233.09 559.62L232.09 559.83L231.32 560.09L230.77 560.4L230.48 560.78L230.45 561.22L230.69 561.74L231.22 562.32L231.96 562.96L232.85 563.63L233.86 564.33L235 565.07L236.26 565.83L237.63 566.61L239.11 567.42L240.69 568.24L242.36 569.07L244.13 569.91L245.97 570.76L247.89 571.61L249.88 572.46L251.93 573.3L254.04 574.15L256.21 574.98L258.41 575.79L260.66 576.59L262.94 577.37L265.25 578.13L267.57 578.86L269.91 579.57L272.26 580.23L274.62 580.87L276.96 581.46L279.3 582.01L281.62 582.52L283.92 582.97L286.2 583.38L288.43 583.73L290.63 584.02L292.78 584.24L294.87 584.41L296.91 584.5L298.88 584.52L300.78 584.47L302.61 584.34L304.34 584.12L305.99 583.82L307.55 583.44L309.03 582.96L310.53 582.37L312.06 581.68L313.6 580.89L315.15 580.01L316.72 579.03L318.3 577.97L319.88 576.83L321.48 575.61L323.07 574.31L324.67 572.95L326.27 571.52L327.87 570.03L329.46 568.48L331.05 566.88L332.63 565.24L334.2 563.55L335.75 561.82L337.29 560.06L338.82 558.26L340.32 556.44L341.81 554.6L343.27 552.74L344.71 550.86L346.12 548.98L347.5 547.09L348.84 545.2L350.16 543.31L351.44 541.44L352.68 539.57L353.88 537.72L355.04 535.89L356.16 534.09L357.22 532.32L358.24 530.58L359.22 528.87L360.13 527.21L361 525.6L361.8 524.04L362.55 522.53L363.05 521.41L363.33 520.54L363.42 519.9L363.31 519.49L363.02 519.29L362.56 519.29L361.93 519.48ZM348.93 378.54L349.86 380.92L350.75 383.29L351.6 385.63L352.4 387.97L353.15 390.28L353.86 392.57L354.52 394.85L355.14 397.11L355.72 399.36L356.24 401.58L356.73 403.79L357.17 405.99L357.56 408.17L357.91 410.33L358.22 412.48L358.48 414.61L358.7 416.73L358.87 418.83L359 420.91L359.09 422.98L359.13 425.04L359.12 427.08L359.08 429.11L358.99 431.12L358.85 433.13L358.68 435.11L358.45 437.09L358.19 439.05L357.88 440.99L357.53 442.93L357.14 444.85L356.7 446.76L356.22 448.65L355.7 450.54L355.13 452.41L354.52 454.27L353.87 456.12L353.18 457.96L352.45 459.8L351.69 461.6L350.9 463.36L350.08 465.09L349.22 466.77L348.34 468.41L347.43 470.01L346.48 471.57L345.51 473.09L344.52 474.58L343.49 476.03L342.44 477.43L341.36 478.8L340.26 480.14L339.13 481.43L337.98 482.69L336.8 483.91L335.6 485.1L334.38 486.25L333.14 487.36L331.87 488.44L330.58 489.48L329.28 490.49L327.95 491.46L326.6 492.4L325.24 493.31L323.86 494.18L322.46 495.02L321.04 495.82L319.61 496.59L318.16 497.33L316.69 498.04L315.21 498.71L313.72 499.35L312.22 499.96L310.7 500.54L309.16 501.09L307.62 501.61L306.07 502.1L304.5 502.56L302.84 503L301.17 503.42L299.49 503.79L297.8 504.13L296.09 504.43L294.37 504.69L292.65 504.91L290.91 505.09L289.16 505.24L287.4 505.34L285.63 505.4L283.84 505.42L282.05 505.39L280.25 505.33L278.44 505.22L276.62 505.06L274.79 504.86L272.95 504.62L271.1 504.33L269.24 503.99L267.37 503.61L265.49 503.18L263.61 502.7L261.72 502.17L259.81 501.59L257.9 500.97L255.98 500.29L254.06 499.56L252.12 498.78L250.18 497.95L248.23 497.06L246.28 496.13L244.32 495.13L242.35 494.09L240.37 492.99L238.38 491.83L236.39 490.62L234.4 489.35L232.4 488.02L230.39 486.64L228.31 485.15L226.28 483.64L224.3 482.11L222.36 480.54L220.46 478.94L218.61 477.32L216.8 475.66L215.04 473.98L213.32 472.27L211.64 470.52L210.01 468.75L208.42 466.95L206.87 465.12L205.37 463.26L203.9 461.36L202.48 459.44L201.1 457.49L199.77 455.5L198.47 453.49L197.21 451.44L196 449.37L194.83 447.26L193.69 445.12L192.6 442.95L191.55 440.75L190.53 438.51L189.56 436.24L188.63 433.95L187.73 431.62L186.87 429.25L186.06 426.86L185.28 424.43L184.53 421.97L183.83 419.47L183.16 416.95L182.53 414.39L181.94 411.79L181.39 409.16L180.87 406.5L180.39 403.81L180.34 403.52L180.29 403.22L180.24 402.93L180.19 402.64L180.15 402.35L180.1 402.05L180.05 401.76L180.01 401.47L179.96 401.18L179.92 400.89L179.87 400.59L179.83 400.3L179.78 400.01L179.74 399.72L179.7 399.43L179.66 399.14L179.62 398.84L179.58 398.55L179.54 398.26L179.5 397.97L179.46 397.68L179.42 397.39L179.38 397.1L179.34 396.81L179.31 396.52L179.27 396.23L179.23 395.94L179.2 395.65L179.16 395.36L179.13 395.07L179.09 394.78L179.06 394.49L179.03 394.2L178.99 393.91L178.96 393.62L178.93 393.33L178.9 393.04L178.86 392.75L178.83 392.46L178.8 392.17L177.6 395.2L176.45 398.25L175.35 401.32L174.29 404.39L173.29 407.48L172.34 410.58L171.43 413.67L170.57 416.77L169.76 419.85L169 422.93L168.28 426L167.6 429.04L166.97 432.07L166.39 435.08L165.84 438.05L165.34 441L164.89 443.9L164.47 446.77L164.1 449.6L163.77 452.38L163.47 455.11L163.22 457.79L163.01 460.41L162.83 462.97L162.7 465.46L162.6 467.89L162.53 470.24L162.51 472.52L162.52 474.72L162.56 476.84L162.64 478.86L162.75 480.8L162.9 482.64L163.08 484.39L163.29 486.03L163.53 487.57L163.81 489L164.11 490.32L164.45 491.52L164.82 492.6L164.96 494.34L165.26 496.1L165.69 497.87L166.25 499.65L166.94 501.45L167.76 503.24L168.69 505.04L169.73 506.84L170.88 508.63L172.13 510.42L173.47 512.2L174.91 513.96L176.43 515.71L178.03 517.44L179.7 519.15L181.44 520.84L183.25 522.49L185.11 524.12L187.03 525.71L188.99 527.27L190.99 528.79L193.04 530.27L195.11 531.7L197.21 533.08L199.33 534.41L201.46 535.69L203.6 536.91L205.75 538.07L207.9 539.17L210.04 540.2L212.17 541.17L214.28 542.06L216.37 542.88L218.43 543.62L220.46 544.28L222.45 544.85L224.4 545.34L226.3 545.74L228.14 546.05L229.92 546.26L231.91 546.44L233.89 546.61L235.85 546.76L237.8 546.9L239.73 547.03L241.65 547.14L243.55 547.24L245.44 547.33L247.32 547.4L249.18 547.46L251.03 547.51L252.86 547.54L254.67 547.55L256.47 547.56L258.25 547.55L260.02 547.52L261.78 547.48L263.51 547.43L265.23 547.36L266.94 547.28L268.62 547.18L270.29 547.07L271.95 546.94L273.59 546.8L275.21 546.64L276.81 546.47L278.4 546.28L279.97 546.08L281.52 545.86L283.05 545.63L284.57 545.38L286.07 545.12L287.55 544.84L289.01 544.55L290.45 544.24L291.88 543.91L293.28 543.57L294.67 543.21L296.04 542.84L297.39 542.45L298.95 541.98L300.52 541.48L302.11 540.95L303.71 540.4L305.33 539.82L306.97 539.21L308.61 538.58L310.27 537.92L311.94 537.24L313.63 536.52L315.33 535.79L317.03 535.02L318.75 534.23L320.48 533.41L322.22 532.56L323.97 531.69L325.73 530.79L327.5 529.87L329.27 528.92L331.06 527.94L332.85 526.94L334.65 525.91L336.45 524.85L338.26 523.77L340.07 522.66L341.89 521.52L343.72 520.36L345.55 519.17L347.38 517.96L349.22 516.72L351.05 515.45L352.89 514.16L354.74 512.84L356.58 511.49L358.43 510.12L360.27 508.73L362.11 507.3L363.96 505.85L365.8 504.38L367.64 502.88L369.25 501.51L370.83 500.07L372.38 498.56L373.9 497L375.38 495.37L376.82 493.69L378.23 491.95L379.59 490.17L380.92 488.33L382.2 486.45L383.44 484.53L384.62 482.57L385.76 480.57L386.85 478.54L387.89 476.48L388.87 474.39L389.8 472.28L390.67 470.14L391.47 467.99L392.22 465.82L392.9 463.63L393.52 461.44L394.07 459.24L394.56 457.04L394.97 454.84L395.31 452.63L395.57 450.44L395.76 448.24L395.88 446.07L395.91 443.9L395.86 441.75L395.73 439.62L395.51 437.51L395.21 435.43L394.82 433.37L394.33 431.35L393.76 429.36L393.09 427.41L392.33 425.49L391.47 423.62L391.26 422.95L391.02 422.22L390.73 421.43L390.4 420.6L390.02 419.72L389.59 418.8L389.13 417.83L388.61 416.81L388.05 415.76L387.45 414.67L386.8 413.54L386.1 412.38L385.36 411.18L384.57 409.96L383.73 408.7L382.85 407.42L381.92 406.11L380.94 404.78L379.91 403.43L378.84 402.07L377.72 400.68L376.55 399.28L375.33 397.86L374.06 396.44L372.74 395L371.37 393.56L369.96 392.12L368.49 390.67L366.97 389.21L365.41 387.76L363.79 386.31L362.12 384.87L360.4 383.43L358.63 382L356.81 380.58L354.94 379.18L353.01 377.78L351.03 376.41L349 375.05L346.92 373.71L347.95 376.13L348.93 378.54ZM141.67 505.14L140.16 505.38L138.64 505.72L137.13 506.17L135.63 506.7L134.15 507.32L132.71 508.02L131.29 508.78L129.93 509.61L128.62 510.49L127.38 511.42L126.21 512.39L125.12 513.38L124.12 514.4L123.23 515.44L122.44 516.49L121.77 517.53L121.23 518.57L120.82 519.6L120.56 520.61L120.45 521.58L120.5 522.52L120.72 523.41L121.12 524.26L121.71 525.04L122.5 525.76L123.49 526.4L124.7 526.96L126.13 527.43L127.33 527.76L128.59 528.13L129.9 528.53L131.27 528.95L132.69 529.4L134.16 529.87L135.68 530.36L137.24 530.88L138.84 531.4L140.48 531.95L142.16 532.5L143.87 533.07L145.61 533.65L147.38 534.23L149.18 534.82L151 535.4L152.83 535.99L154.69 536.58L156.56 537.17L158.45 537.75L160.34 538.32L162.25 538.88L164.15 539.43L166.06 539.96L167.97 540.48L169.88 540.98L171.78 541.46L173.68 541.92L175.56 542.35L177.43 542.76L179.29 543.14L181.12 543.49L182.97 543.73L184.47 543.75L185.63 543.54L186.48 543.13L187.03 542.52L187.3 541.74L187.3 540.8L187.04 539.7L186.56 538.47L185.85 537.12L184.94 535.67L183.84 534.12L182.57 532.49L181.14 530.8L179.58 529.05L177.9 527.27L176.11 525.47L174.22 523.66L172.27 521.86L170.26 520.08L168.2 518.33L166.12 516.63L164.03 514.99L161.95 513.43L159.89 511.96L157.87 510.6L155.9 509.35L154.01 508.24L152.2 507.28L150.5 506.48L148.92 505.85L147.47 505.41L146.07 505.15L144.63 505.02L143.16 505.02L141.67 505.14ZM185.31 220.64L182.62 222.86L179.72 225.36L176.61 228.12L173.31 231.14L169.84 234.39L166.21 237.87L162.43 241.54L158.53 245.41L154.52 249.44L150.41 253.63L146.21 257.96L141.95 262.41L137.64 266.96L133.29 271.61L128.93 276.33L124.55 281.11L120.18 285.93L115.84 290.77L111.54 295.63L107.29 300.48L103.11 305.3L99.02 310.09L95.03 314.82L91.16 319.48L87.41 324.06L83.81 328.53L80.37 332.88L77.11 337.09L74.05 341.15L71.18 345.05L68.54 348.76L66.14 352.27L63.99 355.56L62.11 358.63L60.51 361.44L59.21 363.99L58.23 366.25L57.57 368.23L57.42 368.87L57.21 369.88L56.96 371.26L56.67 372.97L56.34 375.01L56 377.35L55.64 379.98L55.28 382.87L54.92 386.01L54.57 389.38L54.24 392.97L53.94 396.75L53.68 400.71L53.46 404.82L53.3 409.07L53.2 413.45L53.17 417.93L53.22 422.5L53.36 427.13L53.6 431.81L53.94 436.53L54.39 441.26L54.97 445.98L55.68 450.68L56.52 455.33L57.52 459.93L58.66 464.45L59.98 468.88L61.47 473.19L63.13 477.36L64.99 481.39L67.05 485.25L69.31 488.92L71.79 492.39L74.49 495.64L77.42 498.64L80.6 501.38L84.02 503.85L87.7 506.02L91.65 507.88L92.6 508.21L93.66 508.46L94.8 508.64L96.04 508.74L97.36 508.77L98.75 508.73L100.21 508.62L101.73 508.46L103.31 508.23L104.94 507.95L106.62 507.61L108.33 507.22L110.07 506.79L111.84 506.31L113.63 505.79L115.43 505.24L117.24 504.64L119.05 504.02L120.85 503.36L122.64 502.68L124.41 501.98L126.16 501.25L127.87 500.51L129.55 499.76L131.19 498.99L132.77 498.22L134.3 497.44L135.77 496.66L137.17 495.88L138.49 495.1L139.73 494.33L140.89 493.57L141.95 492.82L142.91 492.09L143.77 491.38L144.51 490.69L145.13 490.02L145.63 489.38L146 488.78L146.23 488.2L147.19 484.72L148.23 480.56L149.36 475.75L150.56 470.35L151.83 464.4L153.16 457.92L154.56 450.97L156 443.58L157.48 435.79L159 427.65L160.56 419.19L162.14 410.46L163.73 401.49L165.34 392.32L166.95 383L168.56 373.56L170.16 364.05L171.75 354.5L173.32 344.96L174.86 335.46L176.36 326.05L177.83 316.77L179.25 307.65L180.62 298.74L181.92 290.08L183.16 281.7L184.33 273.65L185.42 265.97L186.42 258.7L187.33 251.87L188.15 245.54L188.85 239.73L189.45 234.49L189.93 229.86L190.28 225.88L190.51 222.59L190.59 220.03L190.54 218.24L190.33 217.25L189.96 217.12L187.76 218.72L185.31 220.64ZM248.76 315.93L247.89 316.01L247.03 316.11L246.17 316.23L245.31 316.39L244.44 316.57L243.57 316.79L242.7 317.03L241.67 317.35L240.65 317.69L239.66 318.05L238.68 318.43L237.73 318.83L236.79 319.25L235.88 319.69L234.99 320.15L234.12 320.64L233.27 321.14L232.44 321.66L231.63 322.2L230.84 322.76L230.07 323.35L229.32 323.95L228.59 324.57L227.88 325.21L227.19 325.87L226.52 326.55L225.87 327.25L225.24 327.97L224.63 328.71L224.04 329.46L223.46 330.24L222.91 331.04L222.38 331.85L221.86 332.69L221.37 333.54L220.89 334.41L220.44 335.3L220 336.21L219.58 337.14L219.18 338.09L218.79 339.05L218.43 340.04L218.09 341.04L217.76 342.06L217.45 343.1L217.16 344.16L216.89 345.24L216.64 346.32L216.41 347.41L216.19 348.53L216 349.68L215.82 350.84L215.65 352.02L215.51 353.22L215.38 354.45L215.26 355.69L215.17 356.96L215.09 358.24L215.03 359.55L214.99 360.87L214.97 362.22L214.96 363.58L214.97 364.97L215 366.37L215.05 367.79L215.11 369.23L215.19 370.69L215.29 372.17L215.41 373.66L215.55 375.17L215.7 376.71L215.87 378.25L216.06 379.82L216.27 381.4L216.5 383.01L216.74 384.62L217.01 386.26L217.29 387.91L217.59 389.58L217.91 391.26L218.24 392.96L218.6 394.68L218.97 396.42L219.37 398.16L219.78 399.93L220.21 401.71L220.66 403.5L221.19 405.54L221.72 407.55L222.26 409.52L222.81 411.46L223.37 413.37L223.93 415.24L224.5 417.08L225.08 418.89L225.66 420.67L226.25 422.41L226.85 424.12L227.46 425.79L228.08 427.44L228.7 429.05L229.33 430.63L229.97 432.18L230.62 433.7L231.27 435.19L231.93 436.65L232.6 438.07L233.28 439.47L233.97 440.83L234.66 442.16L235.37 443.47L236.08 444.74L236.8 445.99L237.53 447.2L238.27 448.39L239.01 449.54L239.77 450.67L240.53 451.76L241.3 452.83L242.09 453.87L242.88 454.88L243.68 455.87L244.48 456.82L245.3 457.75L246.13 458.65L246.97 459.52L247.81 460.36L248.65 461.16L249.49 461.93L250.34 462.67L251.19 463.38L252.05 464.06L252.92 464.71L253.79 465.33L254.66 465.92L255.54 466.49L256.43 467.02L257.32 467.53L258.22 468L259.12 468.45L260.03 468.87L260.95 469.26L261.87 469.62L262.79 469.95L263.72 470.26L264.65 470.54L265.59 470.78L266.54 471L267.49 471.2L268.44 471.36L269.4 471.5L270.37 471.61L271.34 471.69L272.31 471.74L273.29 471.77L274.27 471.77L275.26 471.74L276.25 471.69L277.25 471.61L278.25 471.5L279.26 471.36L280.27 471.2L281.29 471.01L282.31 470.8L283.33 470.56L284.36 470.29L285.4 470L286.27 469.73L287.12 469.44L287.97 469.13L288.81 468.8L289.63 468.46L290.45 468.09L291.25 467.71L292.04 467.31L292.81 466.89L293.58 466.45L294.34 465.98L295.08 465.51L295.81 465.01L296.53 464.49L297.23 463.95L297.93 463.39L298.61 462.82L299.28 462.22L299.93 461.61L300.58 460.97L301.21 460.32L301.83 459.64L302.43 458.95L303.03 458.23L303.61 457.5L304.18 456.75L304.73 455.97L305.27 455.18L305.8 454.37L306.31 453.53L306.82 452.68L307.31 451.81L307.78 450.91L308.24 450L308.69 449.07L309.13 448.11L309.55 447.14L309.95 446.15L310.35 445.13L310.73 444.1L311.17 442.79L311.59 441.48L311.99 440.14L312.35 438.79L312.68 437.42L312.99 436.04L313.26 434.64L313.51 433.22L313.73 431.79L313.91 430.34L314.07 428.87L314.2 427.38L314.3 425.88L314.37 424.35L314.42 422.81L314.43 421.26L314.41 419.68L314.36 418.08L314.29 416.47L314.18 414.84L314.05 413.18L313.88 411.51L313.68 409.82L313.46 408.11L313.2 406.37L312.92 404.62L312.6 402.85L312.25 401.06L311.88 399.24L311.47 397.41L311.03 395.55L310.57 393.67L310.07 391.77L309.54 389.85L308.98 387.91L308.39 385.94L307.77 383.95L307.12 381.94L306.44 379.91L305.72 377.86L305.15 376.26L304.58 374.69L303.99 373.13L303.39 371.6L302.78 370.08L302.17 368.57L301.54 367.09L300.91 365.62L300.27 364.18L299.61 362.75L298.95 361.34L298.29 359.94L297.61 358.57L296.93 357.22L296.24 355.88L295.54 354.56L294.83 353.27L294.12 351.99L293.39 350.73L292.67 349.49L291.93 348.27L291.19 347.07L290.44 345.89L289.69 344.73L288.92 343.58L288.16 342.46L287.38 341.36L286.6 340.28L285.82 339.22L285.03 338.18L284.23 337.16L283.43 336.16L282.63 335.18L281.82 334.22L281 333.28L280.18 332.36L279.36 331.47L278.53 330.59L277.7 329.74L276.86 328.9L276.01 328.09L275.16 327.3L274.31 326.54L273.46 325.8L272.61 325.08L271.76 324.4L270.91 323.74L270.06 323.1L269.21 322.49L268.36 321.91L267.52 321.36L266.67 320.83L265.82 320.32L264.97 319.85L264.12 319.4L263.27 318.97L262.42 318.57L261.57 318.2L260.72 317.86L259.87 317.55L259.02 317.26L258.17 317L257.32 316.76L256.46 316.55L255.61 316.37L254.76 316.22L253.9 316.1L253.05 316L252.19 315.93L251.33 315.89L250.47 315.88L249.62 315.89L248.76 315.93ZM419.61 419.93L417.97 420.2L416.38 420.61L414.87 421.15L413.45 421.83L412.14 422.65L410.96 423.63L409.93 424.76L408.99 426.09L408.07 427.67L407.17 429.45L406.3 431.41L405.47 433.53L404.69 435.77L403.94 438.11L403.26 440.52L402.63 442.98L402.06 445.45L401.56 447.92L401.14 450.34L400.8 452.7L400.54 454.97L400.37 457.12L400.3 459.13L400.33 460.95L400.47 462.58L400.73 463.98L401.1 465.12L401.59 465.98L402.22 466.53L402.98 466.74L403.87 466.59L404.92 466.04L406.12 465.07L407.39 463.87L408.66 462.64L409.93 461.38L411.2 460.1L412.47 458.79L413.72 457.47L414.98 456.13L416.22 454.78L417.46 453.42L418.69 452.06L419.92 450.69L421.13 449.31L422.33 447.94L423.52 446.58L424.7 445.22L425.86 443.87L427.01 442.53L428.14 441.22L429.26 439.91L430.36 438.64L431.44 437.38L432.51 436.16L433.55 434.96L434.57 433.8L435.58 432.67L436.56 431.59L437.41 430.49L437.96 429.41L438.22 428.37L438.23 427.35L438 426.38L437.54 425.45L436.87 424.56L436.02 423.74L434.99 422.98L433.82 422.28L432.52 421.65L431.1 421.11L429.59 420.64L428.01 420.27L426.37 419.99L424.69 419.81L422.99 419.73L421.29 419.77L419.61 419.93ZM235.47 209.57L233.42 210.42L231.98 211.59L231.19 213.1L231.1 214.96L231.72 217.19L233.12 219.8L235.02 222.71L237.17 225.82L239.54 229.12L242.12 232.59L244.92 236.24L247.91 240.06L251.08 244.02L254.44 248.13L257.96 252.38L261.64 256.76L265.46 261.26L269.42 265.87L273.51 270.57L277.72 275.38L282.03 280.26L286.44 285.22L290.93 290.25L295.51 295.34L300.15 300.47L304.84 305.64L309.59 310.85L314.37 316.08L319.18 321.32L324 326.56L328.83 331.81L333.66 337.04L338.48 342.24L343.27 347.42L348.03 352.56L352.75 357.65L357.42 362.69L362.02 367.65L366.55 372.55L371 377.36L375.35 382.08L379.6 386.7L383.74 391.21L387.76 395.6L391.64 399.87L395.38 403.99L395.89 404.5L396.52 405L397.27 405.51L398.11 406.01L399.06 406.52L400.1 407.02L401.23 407.51L402.44 407.99L403.73 408.47L405.08 408.93L406.5 409.38L407.99 409.81L409.52 410.23L411.1 410.62L412.72 411L414.38 411.35L416.06 411.68L417.77 411.99L419.5 412.26L421.24 412.5L422.98 412.72L424.73 412.9L426.47 413.04L428.2 413.15L429.91 413.21L431.6 413.24L433.25 413.22L434.88 413.16L436.46 413.06L438 412.9L439.48 412.7L440.9 412.44L442.27 412.13L443.56 411.76L444.77 411.34L445.9 410.86L446.95 410.32L447.9 409.71L448.75 409.04L449.5 408.3L451.74 405.5L453.63 402.49L455.18 399.28L456.41 395.88L457.34 392.32L457.97 388.59L458.33 384.73L458.43 380.74L458.28 376.64L457.9 372.43L457.31 368.15L456.51 363.79L455.53 359.38L454.37 354.92L453.06 350.44L451.61 345.95L450.03 341.45L448.34 336.97L446.56 332.53L444.69 328.12L442.75 323.77L440.76 319.5L438.74 315.31L436.69 311.23L434.64 307.25L432.59 303.41L430.57 299.71L428.58 296.17L426.65 292.81L424.78 289.63L423 286.65L421.31 283.88L419.74 281.34L418.29 279.05L416.99 277.02L415.84 275.25L414.87 273.78L414.08 272.6L413.49 271.74L413.12 271.21L411.7 269.58L409.67 267.78L407.05 265.83L403.88 263.74L400.21 261.54L396.07 259.23L391.48 256.82L386.5 254.34L381.15 251.8L375.48 249.2L369.51 246.57L363.29 243.93L356.85 241.27L350.23 238.62L343.46 236L336.59 233.41L329.64 230.88L322.65 228.41L315.66 226.02L308.71 223.73L301.83 221.54L295.06 219.48L288.43 217.56L281.98 215.78L275.76 214.18L269.78 212.75L264.1 211.52L258.74 210.5L253.74 209.7L249.15 209.14L244.98 208.84L241.29 208.8L238.11 209.04L235.47 209.57ZM209.57 215.7L208.7 216.13L207.85 216.73L207.01 217.5L206.2 218.42L205.4 219.5L204.62 220.73L203.85 222.11L203.1 223.62L202.36 225.28L201.64 227.06L200.93 228.98L200.24 231.01L199.56 233.17L198.89 235.43L198.24 237.81L197.6 240.29L196.97 242.87L196.36 245.54L195.76 248.3L195.16 251.15L194.59 254.08L194.02 257.08L193.46 260.15L192.91 263.3L192.37 266.5L191.85 269.76L191.33 273.07L190.82 276.43L190.32 279.83L189.83 283.27L189.34 286.75L188.87 290.25L188.4 293.78L187.94 297.33L187.49 300.89L187.04 304.46L186.6 308.04L186.16 311.62L185.73 315.2L185.31 318.76L185.79 317.2L186.29 315.67L186.81 314.16L187.35 312.67L187.9 311.21L188.46 309.78L189.05 308.37L189.65 306.98L190.28 305.62L190.92 304.29L191.58 302.98L192.25 301.7L192.95 300.45L193.67 299.22L194.41 298.02L195.17 296.85L195.95 295.7L196.76 294.59L197.58 293.5L198.43 292.44L199.3 291.41L200.19 290.4L201.11 289.43L202.05 288.48L203.01 287.57L204 286.68L205.02 285.82L206.06 285L207.12 284.2L208.21 283.43L209.33 282.7L210.48 282L211.65 281.32L212.85 280.68L214.07 280.07L215.33 279.5L216.61 278.95L217.93 278.44L219.27 277.96L220.64 277.51L222.28 277.03L223.91 276.6L225.53 276.22L227.14 275.89L228.75 275.6L230.36 275.37L231.96 275.19L233.55 275.06L235.14 274.97L236.72 274.94L238.3 274.95L239.87 275L241.44 275.11L243 275.25L244.56 275.45L246.12 275.68L247.67 275.97L249.22 276.29L250.77 276.66L252.31 277.07L253.85 277.53L255.4 278.02L256.93 278.56L258.47 279.13L260.01 279.75L261.54 280.41L263.08 281.1L264.61 281.84L266.14 282.61L267.67 283.42L269.21 284.27L270.74 285.16L272.28 286.08L273.81 287.04L275.35 288.03L276.89 289.06L278.42 290.12L279.97 291.21L281.51 292.34L283.06 293.5L280.59 290.6L278.12 287.68L275.67 284.76L273.22 281.83L270.79 278.91L268.37 276L265.97 273.11L263.58 270.23L261.22 267.38L258.88 264.55L256.56 261.76L254.27 259L252.01 256.28L249.78 253.61L247.59 250.99L245.43 248.43L243.3 245.93L241.22 243.49L239.18 241.12L237.18 238.83L235.23 236.61L233.32 234.48L231.46 232.44L229.66 230.49L227.91 228.63L226.22 226.88L224.58 225.24L223.01 223.71L221.49 222.29L220.05 220.99L218.66 219.82L217.35 218.78L216.11 217.88L214.94 217.11L213.84 216.49L212.83 216.02L211.89 215.7L211.03 215.53L210.25 215.53L209.57 215.7Z" id="a9uHm75iu"></path></defs><g><g><g><use xlink:href="#e7kwRvsNKr" opacity="1" fill="#c4b7c8" fill-opacity="1"></use><g><use xlink:href="#e7kwRvsNKr" opacity="1" fill-opacity="0" stroke="#000000" stroke-width="5" stroke-opacity="0"></use></g></g><g><use xlink:href="#e8mc2ojb5" opacity="1" fill="#453748" fill-opacity="1"></use><g><use xlink:href="#e8mc2ojb5" opacity="1" fill-opacity="0" stroke="#000000" stroke-width="2.81" stroke-opacity="0"></use></g></g><g><use xlink:href="#a2ezdUyIYT" opacity="1" fill="#c4b7c8" fill-opacity="1"></use><g><use xlink:href="#a2ezdUyIYT" opacity="1" fill-opacity="0" stroke="#000000" stroke-width="5" stroke-opacity="0"></use></g></g><g><use xlink:href="#a9uHm75iu" opacity="1" fill="#453748" fill-opacity="1"></use><g><use xlink:href="#a9uHm75iu" opacity="1" fill-opacity="0" stroke="#000000" stroke-width="2.81" stroke-opacity="0"></use></g></g></g></g></svg>