<?xml version="1.0" encoding="UTF-8" standalone="no"?>
<!-- Created with Inkscape (http://www.inkscape.org/) -->

<svg
   xmlns:dc="http://purl.org/dc/elements/1.1/"
   xmlns:cc="http://creativecommons.org/ns#"
   xmlns:rdf="http://www.w3.org/1999/02/22-rdf-syntax-ns#"
   xmlns:svg="http://www.w3.org/2000/svg"
   xmlns="http://www.w3.org/2000/svg"
   xmlns:sodipodi="http://sodipodi.sourceforge.net/DTD/sodipodi-0.dtd"
   xmlns:inkscape="http://www.inkscape.org/namespaces/inkscape"
   width="274.21945mm"
   height="190.29204mm"
   viewBox="0 0 274.21945 190.29204"
   version="1.1"
   id="svg8"
   inkscape:version="0.92.2 (5c3e80d, 2017-08-06)"
   sodipodi:docname="diceset_twotone.svg"
   inkscape:export-filename="C:\Users\tanzelt\Dropbox\Backup\Projects\Graphic Design\Non-Client Work\Etsy\07-10-18\diceset_twotone.png"
   inkscape:export-xdpi="133.47905"
   inkscape:export-ydpi="133.47905">
  <defs
     id="defs2">
    <inkscape:path-effect
       effect="envelope"
       id="path-effect962"
       is_visible="true"
       yy="true"
       xx="true"
       bendpath1="m 31.772156,186.56526 h 21.27259"
       bendpath2="m 51.960187,186.56526 4.338239,32.12576"
       bendpath3="m 31.772156,218.69102 h 21.27259"
       bendpath4="m 32.856716,186.56526 -3.795958,32.12576"
       bendpath2-nodetypes="cc"
       bendpath4-nodetypes="cc" />
    <inkscape:path-effect
       bendpath4="m 40.730611,121.17536 -5.820833,33.63767"
       bendpath3="M 40.730611,154.81303 H 55.390938"
       bendpath2="m 55.390938,121.17536 7.408333,33.63767"
       bendpath1="M 40.730611,121.17536 H 55.390938"
       xx="true"
       yy="true"
       is_visible="true"
       id="path-effect898"
       effect="envelope"
       bendpath2-nodetypes="cc"
       bendpath4-nodetypes="cc" />
    <inkscape:path-effect
       bendpath4="M 51.191133,97.528149 V 124.60147"
       bendpath3="M 51.191133,124.60147 H 68.36071"
       bendpath2="M 68.36071,97.528149 V 124.60147"
       bendpath1="M 51.191133,97.528149 H 68.36071"
       xx="true"
       yy="true"
       is_visible="true"
       id="path-effect896"
       effect="envelope" />
    <inkscape:path-effect
       effect="envelope"
       id="path-effect890"
       is_visible="true"
       yy="false"
       xx="true"
       bendpath1="M 51.191133,97.528149 H 68.36071"
       bendpath2="M 68.36071,97.528149 V 124.60147"
       bendpath3="M 51.191133,124.60147 H 68.36071"
       bendpath4="M 51.191133,97.528149 V 124.60147" />
    <inkscape:path-effect
       effect="envelope"
       id="path-effect888"
       is_visible="true"
       yy="true"
       xx="true"
       bendpath1="M 51.191133,97.528149 H 68.36071"
       bendpath2="M 68.36071,97.528149 80.852665,124.60147"
       bendpath3="M 51.191133,124.60147 H 68.36071"
       bendpath4="M 51.191133,97.528149 39.356649,124.60147"
       bendpath2-nodetypes="cc"
       bendpath4-nodetypes="cc" />
    <inkscape:path-effect
       effect="envelope"
       id="path-effect878"
       is_visible="true"
       yy="true"
       xx="true"
       bendpath1="m 38.838897,124.10469 h 19.41494"
       bendpath2="m 58.253837,124.10469 8.88244,37.9844"
       bendpath3="m 38.838897,154.71855 h 19.41494"
       bendpath4="m 38.838897,124.10469 -6.803571,32.12576"
       bendpath2-nodetypes="cc"
       bendpath4-nodetypes="cc" />
  </defs>
  <sodipodi:namedview
     id="base"
     pagecolor="#ffffff"
     bordercolor="#666666"
     borderopacity="1.0"
     inkscape:pageopacity="0.0"
     inkscape:pageshadow="2"
     inkscape:zoom="0.78434462"
     inkscape:cx="460.76152"
     inkscape:cy="386.8064"
     inkscape:document-units="mm"
     inkscape:current-layer="layer2"
     showgrid="false"
     showguides="false"
     inkscape:measure-start="0,0"
     inkscape:measure-end="0,0"
     inkscape:snap-global="false"
     inkscape:lockguides="true"
     inkscape:window-width="1920"
     inkscape:window-height="1017"
     inkscape:window-x="-8"
     inkscape:window-y="-8"
     inkscape:window-maximized="1"
     inkscape:guide-bbox="true"
     fit-margin-top="15"
     fit-margin-left="15"
     fit-margin-right="15"
     fit-margin-bottom="15" />
  <metadata
     id="metadata5">
    <rdf:RDF>
      <cc:Work
         rdf:about="">
        <dc:format>image/svg+xml</dc:format>
        <dc:type
           rdf:resource="http://purl.org/dc/dcmitype/StillImage" />
        <dc:title />
      </cc:Work>
    </rdf:RDF>
  </metadata>
  <g
     inkscape:label="Layer 1"
     inkscape:groupmode="layer"
     id="layer1"
     style="display:inline"
     transform="translate(25.308375,-13.777318)" />
  <g
     inkscape:groupmode="layer"
     id="layer2"
     inkscape:label="Layer 2"
     style="display:inline"
     transform="translate(25.308375,-13.777318)">
    <g
       id="g893">
      <path
         inkscape:connector-curvature="0"
         id="path834"
         d="m 101.9004,18.969248 -1.22267,0.970484 C 91.293419,27.396251 72.523378,42.308909 72.523378,42.308909 l -1.013376,0.804601 2.00763,35.613332 1.292944,0.648538 c 0,0 23.696401,11.915513 34.515724,17.673857 l 1.49035,0.792716 28.0386,-23.554634 3.0825,-36.21071 z m 9.21804,71.630252 c 0.15033,0.02726 0.29301,0.03505 0.45165,0.08062 l -1.40612,1.179772 c -0.12306,-0.0649 -0.24041,-0.12355 -0.35501,-0.181383 z"
         style="color:#000000;font-style:normal;font-variant:normal;font-weight:normal;font-stretch:normal;font-size:medium;line-height:normal;font-family:sans-serif;font-variant-ligatures:normal;font-variant-position:normal;font-variant-caps:normal;font-variant-numeric:normal;font-variant-alternates:normal;font-feature-settings:normal;text-indent:0;text-align:start;text-decoration:none;text-decoration-line:none;text-decoration-style:solid;text-decoration-color:#000000;letter-spacing:normal;word-spacing:normal;text-transform:none;writing-mode:lr-tb;direction:ltr;text-orientation:mixed;dominant-baseline:auto;baseline-shift:baseline;text-anchor:start;white-space:normal;shape-padding:0;clip-rule:nonzero;display:inline;overflow:visible;visibility:visible;opacity:1;isolation:auto;mix-blend-mode:normal;color-interpolation:sRGB;color-interpolation-filters:linearRGB;solid-color:#000000;solid-opacity:1;vector-effect:none;fill:#c4b7c8;fill-opacity:1;fill-rule:nonzero;stroke:none;stroke-width:5;stroke-linecap:butt;stroke-linejoin:miter;stroke-miterlimit:4;stroke-dasharray:none;stroke-dashoffset:0;stroke-opacity:1;color-rendering:auto;image-rendering:auto;shape-rendering:auto;text-rendering:auto;enable-background:accumulate" />
      <path
         sodipodi:nodetypes="ccccccccscccccccscccccsssccscccccsscccs"
         inkscape:connector-curvature="0"
         id="rect903"
         d="m 102.23387,21.898147 c -9.384645,7.45678 -28.155843,22.368 -28.155843,22.368 l 1.854591,32.8758 c 0,0 23.675867,11.90205 34.568752,17.699543 l 25.95058,-21.801333 2.84811,-33.452 z m 1.45254,4.10558 c -5.495445,4.89261 -6.984995,15.04449 -6.411125,18.97085 0.57345,3.92346 2.49994,8.77857 5.308115,12.50116 C 93.429575,53.384107 78.872032,44.75008 79.257949,43.26991 79.972463,40.52915 93.596145,30.346847 102.93545,25.324647 c 0.18198,-0.0978 0.43573,0.68682 0.75096,0.67904 z m 5.12878,1.2531 c 7.7459,2.78006 21.74439,9.971864 24.57545,12.460624 0.91637,0.80555 -5.92472,5.999456 -11.71985,11.223796 0.0819,-1.52285 -0.29452,-3.17363 -1.16949,-5.04905 -1.87647,-4.02211 -7.82018,-8.47982 -13.36129,-7.66615 -10.570355,2.8949 -2.7378,-9.21274 1.67518,-10.96922 z m 2.66741,16.17783 c 2.60061,0.8197 4.17998,3.29971 5.28917,5.7736 1.16171,2.5911 -0.58448,4.60205 -3.02596,5.89492 -3.01884,1.59861 -7.69981,-0.47234 -9.43888,-3.74656 -1.31251,-2.47111 -2.46178,-6.16468 -0.12734,-7.88155 1.15073,-0.84634 5.61094,-0.57378 7.30307,-0.0405 z m 24.48445,0.916668 c -0.1076,3.65667 0.0224,24.391442 -2.31819,27.710872 -3.87118,5.49012 -19.45228,17.57405 -21.66058,16.24131 0,0 -2.97097,-20.10987 0.53423,-25.06005 0.66347,-0.93698 2.70301,-3.04851 5.27381,-5.51442 0.28257,-0.25841 0.55311,-0.51599 0.80605,-0.77313 5.91112,-5.59509 17.47209,-16.254813 17.36468,-12.604582 z m -29.25339,18.813002 c 2.23484,1.3487 2.98982,25.91796 0.454,26.4679 -3.6535,0.23509 -27.029766,-12.17204 -28.703827,-15.0803 -0.522377,-0.90746 -3.345176,-27.24897 -0.215059,-27.5453 3.130117,-0.29633 24.139326,13.54723 28.464886,16.1577 z"
         style="color:#000000;font-style:normal;font-variant:normal;font-weight:normal;font-stretch:normal;font-size:medium;line-height:normal;font-family:sans-serif;font-variant-ligatures:normal;font-variant-position:normal;font-variant-caps:normal;font-variant-numeric:normal;font-variant-alternates:normal;font-feature-settings:normal;text-indent:0;text-align:start;text-decoration:none;text-decoration-line:none;text-decoration-style:solid;text-decoration-color:#000000;letter-spacing:normal;word-spacing:normal;text-transform:none;writing-mode:lr-tb;direction:ltr;text-orientation:mixed;dominant-baseline:auto;baseline-shift:baseline;text-anchor:start;white-space:normal;shape-padding:0;clip-rule:nonzero;display:inline;overflow:visible;visibility:visible;opacity:1;isolation:auto;mix-blend-mode:normal;color-interpolation:sRGB;color-interpolation-filters:linearRGB;solid-color:#000000;solid-opacity:1;vector-effect:none;fill:#453748;fill-opacity:1;fill-rule:nonzero;stroke:none;stroke-width:2.06357002;stroke-linecap:butt;stroke-linejoin:miter;stroke-miterlimit:4;stroke-dasharray:none;stroke-dashoffset:0;stroke-opacity:1;color-rendering:auto;image-rendering:auto;shape-rendering:auto;text-rendering:auto;enable-background:accumulate" />
    </g>
    <g
       id="g889">
      <path
         inkscape:connector-curvature="0"
         id="path827"
         d="m 22.150225,19.906659 -2.017448,1.916162 C 10.368015,31.082951 0.60265045,40.341894 -9.1620738,49.602003 l -0.9844362,0.933794 0.2459799,1.331701 c 2.5509047,13.895509 5.1013512,27.791838 7.652246,41.687377 l 0.6232178,3.39876 3.0334058,-1.656231 C 18.975109,85.704878 36.542921,76.112536 54.109516,66.519835 L 56.663882,65.123536 54.898614,62.80895 C 44.545876,49.246091 34.192796,35.682305 23.840045,22.119444 Z"
         style="color:#000000;font-style:normal;font-variant:normal;font-weight:normal;font-stretch:normal;font-size:medium;line-height:normal;font-family:sans-serif;font-variant-ligatures:normal;font-variant-position:normal;font-variant-caps:normal;font-variant-numeric:normal;font-variant-alternates:normal;font-feature-settings:normal;text-indent:0;text-align:start;text-decoration:none;text-decoration-line:none;text-decoration-style:solid;text-decoration-color:#000000;letter-spacing:normal;word-spacing:normal;text-transform:none;writing-mode:lr-tb;direction:ltr;text-orientation:mixed;dominant-baseline:auto;baseline-shift:baseline;text-anchor:start;white-space:normal;shape-padding:0;clip-rule:nonzero;display:inline;overflow:visible;visibility:visible;opacity:1;isolation:auto;mix-blend-mode:normal;color-interpolation:sRGB;color-interpolation-filters:linearRGB;solid-color:#000000;solid-opacity:1;vector-effect:none;fill:#c4b7c8;fill-opacity:1;fill-rule:nonzero;stroke:none;stroke-width:5;stroke-linecap:butt;stroke-linejoin:miter;stroke-miterlimit:4;stroke-dasharray:none;stroke-dashoffset:0;stroke-opacity:1;color-rendering:auto;image-rendering:auto;shape-rendering:auto;text-rendering:auto;enable-background:accumulate" />
      <path
         style="color:#000000;font-style:normal;font-variant:normal;font-weight:normal;font-stretch:normal;font-size:medium;line-height:normal;font-family:sans-serif;font-variant-ligatures:normal;font-variant-position:normal;font-variant-caps:normal;font-variant-numeric:normal;font-variant-alternates:normal;font-feature-settings:normal;text-indent:0;text-align:start;text-decoration:none;text-decoration-line:none;text-decoration-style:solid;text-decoration-color:#000000;letter-spacing:normal;word-spacing:normal;text-transform:none;writing-mode:lr-tb;direction:ltr;text-orientation:mixed;dominant-baseline:auto;baseline-shift:baseline;text-anchor:start;white-space:normal;shape-padding:0;clip-rule:nonzero;display:inline;overflow:visible;visibility:visible;opacity:1;isolation:auto;mix-blend-mode:normal;color-interpolation:sRGB;color-interpolation-filters:linearRGB;solid-color:#000000;solid-opacity:1;vector-effect:none;fill:#453748;fill-opacity:1;fill-rule:nonzero;stroke:none;stroke-width:2.92518187;stroke-linecap:butt;stroke-linejoin:miter;stroke-miterlimit:4;stroke-dasharray:none;stroke-dashoffset:0;stroke-opacity:1;color-rendering:auto;image-rendering:auto;shape-rendering:auto;text-rendering:auto;enable-background:accumulate"
         d="m 21.852129,23.636362 c -9.764765,9.26013 -19.5295009,18.52023 -29.2942239,27.78034 2.550905,13.89551 5.10181,27.79104 7.65270497,41.68658 C 17.777329,83.510782 35.34373,73.917672 52.910359,64.324952 42.55762,50.762092 32.20488,37.199222 21.852129,23.636362 Z M 2.1717171,81.800542 c -1.51079103,4.43561 -8.014097,-21.55045 -6.142816,-28.7621 1.526531,-5.88298 21.9518779,-24.18703 22.9165879,-23.89418 z M 33.66425,42.360972 c -0.10928,0.01 -0.19702,0.0566 -0.24832,0.16024 -0.96563,1.38694 -1.73803,2.46457 -2.33479,3.22151 0,0 -4.11852,3.14025 -4.17773,5.29838 -0.004,0.14666 0.13623,0.27934 0.2643,0.37059 1.05042,0.74809 2.4832,1.4614 3.79763,1.20546 0.54684,-0.10643 1.01862,-0.57315 1.20815,-1.04448 0.0523,-0.13029 -0.052,-0.41209 -0.052,-0.41209 -0.1083,-0.85609 -1.43788,-0.62655 -1.69763,-0.78767 -0.32898,-0.2041 -0.38714,-0.43625 -0.18605,-0.70254 0,0 3.7977,-2.74666 4.81493,-5.18391 5.1582,8.03984 13.691369,16.87583 12.964099,18.80147 -0.90021,2.38366 -8.760789,5.49278 -13.854419,8.57607 -0.59557,-0.99193 -2.07693,-1.95352 -1.61696,-2.93392 0.21085,-0.44945 1.51076,-0.55301 1.51076,-0.55301 1.03827,-0.37963 0.20463,-3.29923 -0.83363,-2.91962 0,0 -1.52083,1.2091 -1.93635,0.70756 -1.27977,-1.54476 -2.78675,-9.56095 -4.16334,-9.14016 -5.418741,1.648 -6.704341,11.70864 -4.354221,15.47946 2.296261,0.983 4.929071,-2.54264 7.275091,-1.65905 1.21297,0.45683 0.71728,1.89388 1.03088,2.81874 -11.393891,6.42119 -25.9989369,12.47683 -25.9989369,12.47683 0.16022,-6.38601 3.4068724,-18.86357 7.1704609,-30.38084 0.292347,0.40293 1.272391,0.25159 1.787818,0.22678 0.10533,-0.004 0.28346,-0.14881 0.28346,-0.14881 0.896644,-0.47296 0.368497,-1.95249 0.626807,-2.92819 0.0491,-0.18585 0.123487,-0.42893 0.225177,-0.72973 0.12615,-0.3728 0.18796,-0.82472 0.24513,-0.72614 0.937733,1.61634 1.533563,2.79566 2.012203,3.41254 0.93363,1.20323 1.98323,1.93257 3.15326,2.18488 0.97613,0.21049 1.82334,0.0392 2.54241,-0.51439 0.64795,-0.49881 1.09274,-1.20327 1.33347,-2.11263 0.24428,-0.92261 0.501181,-1.89654 0.0255,-2.54115 -0.48182,-0.65302 -1.34354,-1.39586 -1.61856,-1.01232 l -0.23555,0.32837 c -0.47684,0.66499 0.36048,1.4004 0.19881,2.01104 -0.16341,0.61731 -0.44103,1.09437 -0.83443,1.43012 -0.44664,0.38179 -0.97788,0.50464 -1.59299,0.37201 -0.87586,-0.18885 -1.77581,-0.90661 -2.69333,-2.15913 -0.74891,-1.02235 -0.66204,-2.76255 -1.853292,-3.45187 0,0 -0.632817,-0.49164 -1.175374,-0.74546 3.437816,-9.59415 6.087086,-19.45549 7.926986,-19.78023 1.8399,-0.32474 6.857491,7.17287 11.060571,13.48529 z m -7.16888,18.25169 c 1.28737,0.057 2.87567,4.85192 2.08248,6.54248 -0.61718,1.31547 -4.196961,4.20963 -4.423661,1.61754 -0.22959,-2.62515 0.37498,-5.29576 1.674451,-7.65422 0.20071,-0.36429 0.42835,-0.51633 0.66673,-0.5058 z"
         id="path856"
         inkscape:connector-curvature="0"
         sodipodi:nodetypes="ccccccscccccccccccccccccccccccccccccccccccccccccccccccccc" />
    </g>
    <g
       id="g897">
      <path
         inkscape:connector-curvature="0"
         id="path841"
         d="m 196.38662,19.162518 -1.26763,0.748275 -30.46274,18.001485 -1.19527,37.449394 32.82228,22.336104 33.01969,-22.326285 -0.98443,-37.459213 z"
         style="color:#000000;font-style:normal;font-variant:normal;font-weight:normal;font-stretch:normal;font-size:medium;line-height:normal;font-family:sans-serif;font-variant-ligatures:normal;font-variant-position:normal;font-variant-caps:normal;font-variant-numeric:normal;font-variant-alternates:normal;font-feature-settings:normal;text-indent:0;text-align:start;text-decoration:none;text-decoration-line:none;text-decoration-style:solid;text-decoration-color:#000000;letter-spacing:normal;word-spacing:normal;text-transform:none;writing-mode:lr-tb;direction:ltr;text-orientation:mixed;dominant-baseline:auto;baseline-shift:baseline;text-anchor:start;white-space:normal;shape-padding:0;clip-rule:nonzero;display:inline;overflow:visible;visibility:visible;opacity:1;isolation:auto;mix-blend-mode:normal;color-interpolation:sRGB;color-interpolation-filters:linearRGB;solid-color:#000000;solid-opacity:1;vector-effect:none;fill:#c4b7c8;fill-opacity:1;fill-rule:nonzero;stroke:none;stroke-width:5;stroke-linecap:butt;stroke-linejoin:miter;stroke-miterlimit:4;stroke-dasharray:none;stroke-dashoffset:0;stroke-opacity:1;color-rendering:auto;image-rendering:auto;shape-rendering:auto;text-rendering:auto;enable-background:accumulate" />
      <path
         sodipodi:nodetypes="cccccccscsssssscccccccccccccccscccccscccccccccccccscccscccssss"
         inkscape:connector-curvature="0"
         id="path821"
         d="m 196.39094,22.063357 -29.27897,17.30183 -1.10783,34.70207 30.28368,20.609026 30.48056,-20.608336 -0.91244,-34.70276 z m 26.90878,18.81671 c 2.90116,6.15251 1.35342,28.06597 1.35342,28.06597 0,0 -20.18275,-33.75855 -23.57237,-40.96025 -1.35284,-2.87428 20.68971,9.65117 22.21895,12.89428 z M 190.8179,27.779217 c -0.97632,2.18339 -17.23309,33.34529 -21.84627,40.32041 -1.6718,2.52775 -1.80617,-23.47986 0.69654,-26.97136 1.95064,-2.72131 21.95311,-15.1457 21.14973,-13.34905 z m 5.45839,-1.19305 c 0.51531,-0.0462 1.93086,1.70699 3.83025,4.51608 -0.26412,-0.19942 -0.53177,-0.38426 -0.8039,-0.53931 -1.47161,-0.8384 -3.04496,-1.0407 -4.53038,-0.70485 -0.8142,0.18407 -1.60681,0.57851 -2.37304,1.12207 1.87413,-2.66058 3.29514,-4.34186 3.87707,-4.39399 z m -1.54948,9.43041 c 2.16526,-0.0895 4.6531,2.09789 4.87974,5.5771 0.15405,2.3649 -0.4566,5.86397 -2.5033,6.21955 -2.25982,0.39261 -4.71677,-1.46449 -5.90818,-4.07242 -1.31185,-2.87156 0.5276,-6.75229 2.63084,-7.54378 0.2886,-0.1086 0.59159,-0.16767 0.9009,-0.18045 z m 9.58785,1.72448 c 7.73973,12.74988 19.72646,33.03339 18.6038,34.38498 -1.58928,1.91332 -14.99177,1.50596 -26.59469,1.34486 2.22052,-0.62975 5.09235,-1.97679 7.90744,-4.00661 4.00462,-2.8875 7.08734,-6.72996 6.43735,-10.93102 -0.18617,-1.20327 -0.74226,-2.35522 -1.38054,-3.43135 -1.43043,-2.41161 -5.35419,-3.14247 -7.33487,-3.95031 -1.57973,-0.64428 -1.4332,-1.57739 -0.83851,-2.40557 0.60861,-0.84757 1.76071,-1.69852 2.38052,-2.28079 1.55473,-1.46055 1.91747,-3.50134 1.62341,-5.6178 -0.14029,-1.00968 -0.43753,-2.07821 -0.80391,-3.10639 z m -19.29776,4.84377 c -0.1436,0.74503 -0.21984,1.5008 -0.19945,2.26041 0.0407,1.51329 1.28972,2.55613 2.42664,3.51546 1.13555,0.95819 2.18128,1.86218 2.10913,3.33772 -1.0354,3.84334 -3.12604,2.83402 -5.6871,6.42824 -1.80912,2.64104 -2.77363,8.27446 -0.34792,11.02082 1.76682,2.00035 4.16151,3.31052 6.06012,3.99236 0.16327,0.0587 0.32178,0.10764 0.48098,0.15875 -9.39388,-0.35212 -18.77124,-0.70105 -19.53698,-1.59813 -1.46043,-1.71094 7.49777,-16.99819 14.69458,-29.11563 z m 8.53424,11.85294 c 0.36888,-0.002 0.72816,0.0196 1.06239,0.0562 1.70185,0.18704 3.48629,1.04869 4.95978,2.36626 1.46557,1.31048 2.64859,3.10322 2.63966,5.18838 -0.002,0.63695 -0.0919,1.27329 -0.35955,1.87373 -1.2041,2.70198 -4.15011,3.98592 -6.31048,4.05615 -2.17496,0.0706 -4.88572,-1.03027 -6.2094,-3.59484 -1.24753,-2.41709 -0.86089,-5.17364 0.11331,-7.62518 0.72503,-1.82455 2.5059,-2.30854 4.10431,-2.32081 z m 26.95095,21.48882 c -5.59866,4.12839 -20.4377,14.16944 -24.64224,14.08504 -5.94462,-0.11934 -19.74351,-10.92897 -23.90183,-14.56445 -0.50526,-0.44175 49.97733,-0.57746 48.54407,0.47941 z"
         style="color:#000000;font-style:normal;font-variant:normal;font-weight:normal;font-stretch:normal;font-size:medium;line-height:normal;font-family:sans-serif;font-variant-ligatures:normal;font-variant-position:normal;font-variant-caps:normal;font-variant-numeric:normal;font-variant-alternates:normal;font-feature-settings:normal;text-indent:0;text-align:start;text-decoration:none;text-decoration-line:none;text-decoration-style:solid;text-decoration-color:#000000;letter-spacing:normal;word-spacing:normal;text-transform:none;writing-mode:lr-tb;direction:ltr;text-orientation:mixed;dominant-baseline:auto;baseline-shift:baseline;text-anchor:start;white-space:normal;shape-padding:0;clip-rule:nonzero;display:inline;overflow:visible;visibility:visible;opacity:1;isolation:auto;mix-blend-mode:normal;color-interpolation:sRGB;color-interpolation-filters:linearRGB;solid-color:#000000;solid-opacity:1;vector-effect:none;fill:#453748;fill-opacity:1;fill-rule:nonzero;stroke:none;stroke-width:2.62555838;stroke-linecap:butt;stroke-linejoin:miter;stroke-miterlimit:4;stroke-dasharray:none;stroke-dashoffset:0;stroke-opacity:1;color-rendering:auto;image-rendering:auto;shape-rendering:auto;text-rendering:auto;enable-background:accumulate" />
    </g>
    <g
       id="g901">
      <path
         inkscape:connector-curvature="0"
         id="path881"
         d="m 27.494086,107.08066 -1.300697,0.76533 -34.8671206,20.5605 -0.2986897,0.88315 c 0,0 -1.7783437,5.26981 -2.9124837,11.50162 -0.567069,3.1159 -0.983783,6.48578 -0.915706,9.6759 0.06808,3.19012 0.554015,6.26119 2.2965,8.72866 l 0.162264,0.23048 0.20929,0.18759 c 0,0 6.7446185,6.1636 12.458154,9.22269 l 23.65902,16.19333 23.294186,-15.4187 c 6.317859,-3.16987 12.631269,-8.00158 12.631269,-8.00158 l 0.306959,-0.23254 0.222208,-0.3142 c 1.740863,-2.46315 2.311413,-5.58079 2.527496,-8.91418 0.21608,-3.3334 -0.0043,-6.92005 -0.378791,-10.25571 -0.748998,-6.67133 -2.144569,-12.39045 -2.144569,-12.39045 l -0.242364,-0.99633 z"
         style="color:#000000;font-style:normal;font-variant:normal;font-weight:normal;font-stretch:normal;font-size:medium;line-height:normal;font-family:sans-serif;font-variant-ligatures:normal;font-variant-position:normal;font-variant-caps:normal;font-variant-numeric:normal;font-variant-alternates:normal;font-feature-settings:normal;text-indent:0;text-align:start;text-decoration:none;text-decoration-line:none;text-decoration-style:solid;text-decoration-color:#000000;letter-spacing:normal;word-spacing:normal;text-transform:none;writing-mode:lr-tb;direction:ltr;text-orientation:mixed;dominant-baseline:auto;baseline-shift:baseline;text-anchor:start;white-space:normal;shape-padding:0;clip-rule:nonzero;display:inline;overflow:visible;visibility:visible;opacity:1;isolation:auto;mix-blend-mode:normal;color-interpolation:sRGB;color-interpolation-filters:linearRGB;solid-color:#000000;solid-opacity:1;vector-effect:none;fill:#c4b7c8;fill-opacity:1;fill-rule:nonzero;stroke:none;stroke-width:5;stroke-linecap:butt;stroke-linejoin:miter;stroke-miterlimit:4;stroke-dasharray:none;stroke-dashoffset:0;stroke-opacity:1;color-rendering:auto;image-rendering:auto;shape-rendering:auto;text-rendering:auto;enable-background:accumulate" />
      <path
         sodipodi:nodetypes="cccccccccccccccccccccscccccccsccccccccccsscccccccccccssccs"
         inkscape:connector-curvature="0"
         id="path909"
         d="m 27.463754,110.00024 -34.0663725,20.08707 c 0,0 -6.9096775,20.51393 -1.858757,27.66637 0,0 6.944493,6.23873 12.1159317,8.96279 l 22.3532388,15.29912 22.010813,-14.56792 c 6.0358,-3.00359 12.37897,-7.82818 12.37897,-7.82818 5.05893,-7.1579 -0.38355,-29.52512 -0.38355,-29.52512 z m -2.909353,4.57024 c 1.16746,-0.37552 -16.2752448,35.12966 -20.2755738,41.22762 -0.70814,1.07947 -8.1528477,1.92325 -9.8738107,0.55927 -7.8040805,-6.18517 0.643255,-23.04216 1.193294,-23.91842 2.235404,-3.56131 23.5114595,-16.11718 28.9560905,-17.86847 z m 33.853827,19.20026 c 0.32479,0.93243 6.31426,19.41732 -0.69298,23.618 -2.00777,1.2036 -7.9745,-1.89762 -8.63701,-3.24945 -5.36888,-10.95503 -15.52335,-29.99503 -17.600626,-37.09877 -2.077275,-7.10372 25.540366,12.73901 26.930616,16.73022 z M 27.826932,115.27118 c 1.570891,-0.1321 4.730146,8.16503 8.243706,15.90456 -2.6121,-3.48501 -5.52304,-5.55788 -9.427225,-5.50825 -3.299796,0.0419 -5.716882,1.87362 -7.772414,4.91626 3.21897,-7.31653 6.824193,-15.1333 8.955933,-15.31257 z m 0.509118,17.75241 c 2.059169,0.002 3.686906,1.2132 5.007368,3.5129 1.2968,2.28043 2.1513,5.42079 2.34688,9.18471 0.25266,4.86261 -0.54508,8.34973 -2.39049,10.81705 -1.486288,1.99 -3.317974,2.9364 -5.394134,2.93756 -2.455029,0.001 -4.385426,-1.05852 -5.676333,-3.31726 -1.317332,-2.30497 -1.871442,-5.6531 -1.684297,-10.36679 0.163884,-4.12811 0.956063,-7.37666 2.205751,-9.48424 1.273084,-2.14706 3.102276,-3.28756 5.585255,-3.28393 z m -14.083085,8.9769 c -0.120767,0.63512 -0.224665,1.27943 -0.304659,1.93443 -0.740956,6.067 0.536224,11.14628 4.160711,15.59542 3.470582,4.28008 7.440028,5.99912 11.342414,6.05024 3.707837,0.0485 7.362577,-1.29948 10.115477,-4.81941 2.74196,-3.45106 3.77446,-7.91346 3.05754,-13.75205 3.73903,4.15809 4.8893,8.5866 4.86345,10.07975 0.79126,4.51067 -3.33471,9.71305 -7.73178,11.53125 -4.98993,2.06336 -9.726822,2.99595 -13.398771,2.99595 -3.177851,0 -6.981886,-0.9268 -11.212202,-2.58416 -3.710563,-1.45377 -8.9955858,-7.91652 -8.0421908,-11.65231 -0.170298,-2.41021 2.5239521,-9.72501 7.1500108,-15.37911 z m 40.218843,18.49435 c -1.82029,1.07929 -4.29408,2.78925 -6.59688,3.90815 -2.3028,1.11891 0.72251,-4.97274 2.57555,-6.25895 1.85304,-1.28622 5.90871,1.23175 4.02133,2.3508 z M 3.6472372,158.60517 c 2.220976,1.2676 6.9992248,9.32514 3.656856,7.67385 -3.012703,-1.48842 -6.33790302,-4.03326 -8.21098372,-5.16784 -2.47591798,-1.49972 2.33315172,-3.77361 4.55412772,-2.50601 z m 23.1783298,16.52695 c 2.572878,0 13.263331,-5.88007 11.146141,-3.61382 -2.51846,2.69574 -8.459187,7.15258 -11.939548,7.12481 -3.554411,-0.0284 -10.379846,-5.24107 -11.452778,-6.98561 -1.072933,-1.74456 9.961222,3.47462 12.246185,3.47462 z"
         style="color:#000000;font-style:normal;font-variant:normal;font-weight:normal;font-stretch:normal;font-size:medium;line-height:normal;font-family:sans-serif;font-variant-ligatures:normal;font-variant-position:normal;font-variant-caps:normal;font-variant-numeric:normal;font-variant-alternates:normal;font-feature-settings:normal;text-indent:0;text-align:start;text-decoration:none;text-decoration-line:none;text-decoration-style:solid;text-decoration-color:#000000;letter-spacing:normal;word-spacing:normal;text-transform:none;writing-mode:lr-tb;direction:ltr;text-orientation:mixed;dominant-baseline:auto;baseline-shift:baseline;text-anchor:start;white-space:normal;shape-padding:0;clip-rule:nonzero;display:inline;overflow:visible;visibility:visible;opacity:1;isolation:auto;mix-blend-mode:normal;color-interpolation:sRGB;color-interpolation-filters:linearRGB;solid-color:#000000;solid-opacity:1;vector-effect:none;fill:#453748;fill-opacity:1;fill-rule:nonzero;stroke:none;stroke-width:2.81208706;stroke-linecap:butt;stroke-linejoin:miter;stroke-miterlimit:4;stroke-dasharray:none;stroke-dashoffset:0;stroke-opacity:1;color-rendering:auto;image-rendering:auto;shape-rendering:auto;text-rendering:auto;enable-background:accumulate" />
    </g>
    <text
       xml:space="preserve"
       style="font-style:normal;font-variant:normal;font-weight:normal;font-stretch:normal;font-size:15.875px;line-height:125%;font-family:Narkisim;-inkscape-font-specification:Narkisim;letter-spacing:0px;word-spacing:0px;fill:#000000;fill-opacity:1;stroke:none;stroke-width:0.26458332px;stroke-linecap:butt;stroke-linejoin:miter;stroke-opacity:1"
       x="42.763123"
       y="192.76488"
       id="text969"><tspan
         sodipodi:role="line"
         id="tspan967"
         x="42.763123"
         y="206.41521"
         style="stroke-width:0.26458332px" /></text>
    <g
       id="g905">
      <path
         inkscape:connector-curvature="0"
         id="path874"
         d="m 110.27715,107.5473 -0.59377,0.14831 -23.021331,5.71696 -12.681397,20.72432 -0.941543,23.39495 15.59388,17.82217 22.634791,9.24181 22.76347,-9.38857 15.13861,-17.73432 -1.3162,-23.41614 -13.36146,-20.66954 z"
         style="color:#000000;font-style:normal;font-variant:normal;font-weight:normal;font-stretch:normal;font-size:medium;line-height:normal;font-family:sans-serif;font-variant-ligatures:normal;font-variant-position:normal;font-variant-caps:normal;font-variant-numeric:normal;font-variant-alternates:normal;font-feature-settings:normal;text-indent:0;text-align:start;text-decoration:none;text-decoration-line:none;text-decoration-style:solid;text-decoration-color:#000000;letter-spacing:normal;word-spacing:normal;text-transform:none;writing-mode:lr-tb;direction:ltr;text-orientation:mixed;dominant-baseline:auto;baseline-shift:baseline;text-anchor:start;white-space:normal;shape-padding:0;clip-rule:nonzero;display:inline;overflow:visible;visibility:visible;opacity:1;isolation:auto;mix-blend-mode:normal;color-interpolation:sRGB;color-interpolation-filters:linearRGB;solid-color:#000000;solid-opacity:1;vector-effect:none;fill:#c4b7c8;fill-opacity:1;fill-rule:nonzero;stroke:none;stroke-width:5;stroke-linecap:butt;stroke-linejoin:miter;stroke-miterlimit:4;stroke-dasharray:none;stroke-dashoffset:0;stroke-opacity:1;color-rendering:auto;image-rendering:auto;shape-rendering:auto;text-rendering:auto;enable-background:accumulate" />
      <path
         sodipodi:nodetypes="ccccccccccccsscscscsscsscscssccccccccccccccccccscsccccccccccsccccsccssccccsscc"
         inkscape:connector-curvature="0"
         id="path988"
         d="m 110.28606,110.12145 -22.02628,5.46958 -11.808068,19.29561 -0.874164,21.74838 14.546989,16.62729 21.137823,8.63207 21.25874,-8.76912 14.09715,-16.51277 -1.2234,-21.75439 -12.46068,-19.27533 z m 0.5456,2.09126 c 2.7464,0.86335 15.10954,1.38663 17.8292,4.97107 1.38843,1.82989 -2.42048,4.9257 -4.71722,4.96034 -9.10246,0.13728 -23.37677,-0.004 -27.766549,0.18564 -1.224634,-2.41664 -8.015165,-3.36397 -5.778407,-5.01276 4.923956,-3.62959 17.092916,-4.76823 20.432976,-5.10429 z m 22.61904,8.00788 c 3.93387,2.66414 8.4105,12.23221 10.08199,14.89676 0.17141,2.79861 1.94461,7.78885 0.27761,17.18584 -0.62816,3.54096 -5.52792,0.873 -8.60826,-0.983 -2.72975,-1.64476 -8.49723,-24.8588 -9.50171,-27.36533 3.8848,-1.3904 3.8165,-6.39841 7.75037,-3.73427 z m -39.404793,7.82064 c -1.8709,7.23733 -1.992429,13.69285 -3.637532,21.71789 -4.144027,1.424 -11.802626,6.86589 -12.748036,4.29991 -2.162968,-5.87061 0.690006,-14.19646 0.805438,-18.15418 1.472683,-2.39526 6.811123,-15.45059 10.204301,-15.40096 6.188238,0.0905 6.00263,5.11264 5.375829,7.53734 z m 16.582253,-4.52783 c 4.91962,0.0655 10.01306,0.76203 12.22713,1.98942 1.12051,0.62115 2.37399,3.00424 3.50346,6.04708 -1.14402,-1.06842 -2.40453,-2.04402 -3.81149,-2.69372 -5.88483,-1.97549 -9.13024,-0.96744 -13.92955,1.18796 -0.15925,-0.69098 -0.39852,-2.44129 -0.751,-3.09339 -0.99244,-1.83605 -3.94947,-1.19906 -5.84809,-1.16331 -1.19548,0.0226 -2.51158,0.27744 -3.661161,0.82385 0.371172,-0.55814 0.735897,-1.00458 1.085956,-1.30299 1.519165,-1.29505 6.265125,-1.86038 11.184745,-1.7949 z m -14.981073,8.89641 c 0.301687,0.67013 0.837096,1.19135 1.646196,1.35783 6.979947,1.29713 6.162347,0.91514 3.869187,8.64257 -1.15032,3.91706 -0.97803,8.8122 -0.54673,12.94435 0.084,0.80423 0.17095,1.33759 0.34245,1.76862 -3.605806,-2.1983 -6.871836,-4.76201 -7.907336,-6.71324 -1.484664,-2.79761 0.235161,-11.51982 2.596233,-18.00013 z m 24.885623,0.42422 c 2.12961,3.02195 -1.81888,8.40588 -5.45099,10.41308 -1.63192,0.90184 -4.54774,3.7082 -5.08817,5.5369 -0.50526,1.70962 -0.64863,3.48663 0.86968,4.66675 2.12965,1.65529 4.95515,0.85291 7.21642,0.0924 1.84128,-0.6193 7.5754,-1.56562 9.44615,-1.44195 0.056,0.005 0.10119,0.0131 0.15245,0.0195 -3.89252,4.43402 -12.45138,9.66193 -15.75086,9.61964 -1.38165,-0.0177 -3.74452,-0.85211 -6.34374,-2.09756 0.0277,-0.0746 0.0541,-0.15352 0.0752,-0.24633 0.83405,-3.67308 -0.17187,-7.55977 -0.10142,-11.3342 -0.0858,-4.66286 1.81472,-7.95804 2.91753,-11.88579 4.30941,-1.71413 8.36653,-7.26921 12.05778,-3.34244 z m 7.18836,2.92303 c 1.05723,3.72593 1.83253,7.68879 1.97965,10.52534 -1.87352,-0.78728 -2.48829,1.48183 -4.46323,2.11484 -2.30817,0.73986 -8.64466,1.4159 -8.1475,-0.91218 0.84467,-3.95527 6.80776,-4.80025 9.21018,-8.12768 0.73501,-1.01803 1.28011,-2.28119 1.4209,-3.60032 z m -19.79536,42.71898 c -8.652292,-2.72655 -13.543821,-5.45837 -16.475846,-6.81889 -1.770092,-2.1843 -8.982556,-8.0752 -10.906518,-13.83204 -0.921269,-2.75662 3.599809,-3.48557 8.915656,-4.8951 2.349439,-0.62297 18.430658,9.49144 21.261418,12.46358 -1.111,5.72628 1.03371,14.28888 -2.79471,13.08245 z m 33.54822,-19.8388 c -3.38789,7.69696 -8.78631,10.79444 -10.4789,12.94673 -3.95949,1.54095 -8.47761,4.38459 -16.09558,6.35905 -4.06894,1.05459 -3.30908,-6.31895 -2.02885,-11.611 0.41676,-1.72274 18.26367,-14.18109 18.26367,-14.18109 0,0 11.53714,3.76574 10.33966,6.48631 z"
         style="color:#000000;font-style:normal;font-variant:normal;font-weight:normal;font-stretch:normal;font-size:medium;line-height:normal;font-family:sans-serif;font-variant-ligatures:normal;font-variant-position:normal;font-variant-caps:normal;font-variant-numeric:normal;font-variant-alternates:normal;font-feature-settings:normal;text-indent:0;text-align:start;text-decoration:none;text-decoration-line:none;text-decoration-style:solid;text-decoration-color:#000000;letter-spacing:normal;word-spacing:normal;text-transform:none;writing-mode:lr-tb;direction:ltr;text-orientation:mixed;dominant-baseline:auto;baseline-shift:baseline;text-anchor:start;white-space:normal;shape-padding:0;clip-rule:nonzero;display:inline;overflow:visible;visibility:visible;opacity:1;isolation:auto;mix-blend-mode:normal;color-interpolation:sRGB;color-interpolation-filters:linearRGB;solid-color:#000000;solid-opacity:1;vector-effect:none;fill:#453748;fill-opacity:1;fill-rule:nonzero;stroke:none;stroke-width:2.9065721;stroke-linecap:butt;stroke-linejoin:miter;stroke-miterlimit:4;stroke-dasharray:none;stroke-dashoffset:0;stroke-opacity:1;color-rendering:auto;image-rendering:auto;shape-rendering:auto;text-rendering:auto;enable-background:accumulate" />
    </g>
    <g
       id="g909">
      <path
         sodipodi:nodetypes="ccccccccccczcc"
         inkscape:connector-curvature="0"
         id="path5678"
         d="m 165.20919,130.34022 -0.17208,0.12712 -5.04879,39.50767 36.54299,14.76964 0.18914,-0.0801 c 11.72438,-4.93773 23.95863,-9.53821 35.70531,-14.49214 l 0.34778,-0.14676 -0.047,-0.37465 c -1.54316,-12.74719 -4.03146,-25.709 -5.57434,-38.40851 l -0.0253,-0.1974 -0.15038,-0.12661 c -5.43111,-4.53372 -12.57721,-9.75722 -13.96741,-10.84081 -1.3902,-1.08359 -16.52254,-12.53882 -16.52254,-12.53882 -5.51929,3.64803 -21.04206,15.23188 -31.27734,22.80137 z"
         style="color:#000000;font-style:normal;font-variant:normal;font-weight:normal;font-stretch:normal;font-size:medium;line-height:normal;font-family:sans-serif;text-indent:0;text-align:start;text-decoration:none;text-decoration-line:none;text-decoration-style:solid;text-decoration-color:#000000;letter-spacing:normal;word-spacing:normal;text-transform:none;writing-mode:lr-tb;direction:ltr;baseline-shift:baseline;text-anchor:start;white-space:normal;clip-rule:nonzero;display:inline;overflow:visible;visibility:visible;opacity:1;isolation:auto;mix-blend-mode:normal;color-interpolation:sRGB;color-interpolation-filters:linearRGB;solid-color:#000000;solid-opacity:1;fill:#c4b7c8;fill-opacity:1;fill-rule:nonzero;stroke:none;stroke-width:1;stroke-linecap:butt;stroke-linejoin:miter;stroke-miterlimit:4;stroke-dasharray:none;stroke-dashoffset:0;stroke-opacity:1;color-rendering:auto;image-rendering:auto;shape-rendering:auto;text-rendering:auto;enable-background:accumulate" />
      <path
         id="path5705-0"
         d="m 196.3765,109.82557 -0.22398,0.16389 -0.22671,0.16116 -0.17208,0.12292 h -0.003 c -9.48012,7.01001 -18.92436,13.99127 -28.4044,21.00223 l -0.25402,0.18847 -4.71724,36.92119 34.14876,13.80482 0.28407,-0.12019 c 10.85018,-4.56956 22.17692,-8.82924 33.06164,-13.41968 l 0.51898,-0.21852 -0.0683,-0.55721 c -1.43064,-11.81767 -3.73807,-23.8197 -5.16519,-35.5664 l -0.0382,-0.29499 -0.22671,-0.18847 c -5.03952,-4.2068 -10.36523,-8.04636 -15.50926,-12.05395 l -0.10092,-0.0792 h -0.006 z m -1.51596,4.31026 c 0.0324,0.0196 0.16624,0.18038 0.27315,0.47527 0.10689,0.29489 0.20334,0.70667 0.27587,1.18819 0.14508,0.96304 0.20672,2.20658 0.18848,3.45803 -0.0183,1.25145 -0.11937,2.51164 -0.28408,3.5072 -0.0823,0.49778 -0.18055,0.93054 -0.28953,1.25374 -0.10897,0.3232 -0.24586,0.53153 -0.295,0.57361 -0.0196,0.0168 -0.16903,0.11098 -0.38514,0.20759 -0.2161,0.0966 -0.50505,0.21268 -0.85494,0.3387 -0.69979,0.25204 -1.63854,0.5515 -2.73147,0.8768 -2.18585,0.6506 -4.9915,1.39881 -7.7874,2.08411 -2.79591,0.6853 -5.58303,1.3072 -7.72731,1.69351 -1.07215,0.19315 -1.98482,0.32923 -2.64679,0.38513 -0.23871,0.0202 -0.40021,0.0168 -0.56541,0.0164 0.11143,-0.11557 0.1979,-0.21039 0.36601,-0.36875 0.54487,-0.51328 1.36337,-1.2316 2.37091,-2.07318 2.0151,-1.68316 4.78227,-3.87042 7.63171,-6.00103 2.84944,-2.13061 5.78483,-4.20246 8.1343,-5.6514 1.17474,-0.72446 2.20486,-1.29566 2.98822,-1.63341 0.39168,-0.16888 0.72149,-0.27902 0.96148,-0.32504 0.23999,-0.046 0.37239,-0.008 0.37694,-0.006 z m 3.021,0.0137 c -0.0467,0.0346 0.0404,-0.0143 0.25403,0.0328 0.21367,0.0471 0.52155,0.1596 0.89318,0.33051 0.74328,0.34183 1.74444,0.91392 2.89262,1.64161 2.29637,1.45539 5.20536,3.53429 8.04143,5.67325 2.83608,2.13896 5.59944,4.33897 7.61806,6.042 1.00931,0.85151 1.83336,1.57901 2.3791,2.10596 0.19875,0.1919 0.31366,0.32263 0.43157,0.45342 -0.16478,0.003 -0.33961,0.003 -0.59546,-0.0219 -0.65397,-0.0634 -1.56674,-0.21939 -2.63859,-0.44255 -2.1437,-0.4463 -4.93829,-1.15893 -7.73004,-1.93115 -2.79176,-0.77222 -5.58332,-1.60248 -7.73005,-2.2835 -1.07336,-0.34051 -1.98471,-0.64662 -2.65225,-0.885 -0.33377,-0.11919 -0.60845,-0.22153 -0.80578,-0.30319 -0.19733,-0.0817 -0.34251,-0.16921 -0.31139,-0.14477 -0.0318,-0.025 -0.16564,-0.20799 -0.2786,-0.50259 -0.11296,-0.29461 -0.22607,-0.69709 -0.32232,-1.16087 -0.1925,-0.92757 -0.32951,-2.11643 -0.37694,-3.316 -0.0474,-1.19957 -0.004,-2.41024 0.15843,-3.38428 0.16267,-0.97405 0.48236,-1.68845 0.773,-1.90383 z m 1.46406,13.1957 c 0.16226,-0.002 0.40913,0.0146 0.72657,0.0546 0.65004,0.0819 1.57003,0.25135 2.66591,0.48074 2.19178,0.45876 5.08634,1.16427 7.97861,1.92841 2.89227,0.76415 5.78669,1.58768 7.98953,2.28077 1.10142,0.34656 2.02796,0.66244 2.69049,0.91777 0.33127,0.12767 0.59935,0.24044 0.77847,0.33051 0.0885,0.0445 0.1525,0.0857 0.1912,0.112 0.005,0.0504 0.0107,0.13013 0.008,0.23491 -0.005,0.20958 -0.0308,0.50847 -0.0738,0.87406 -0.0859,0.73119 -0.24713,1.73589 -0.46161,2.91175 -0.42897,2.3517 -1.07895,5.39773 -1.81643,8.41017 -0.73747,3.01245 -1.56267,5.99473 -2.33267,8.20532 -0.38499,1.1053 -0.75972,2.0181 -1.08985,2.63313 -0.16507,0.30752 -0.31983,0.53994 -0.4425,0.67467 -0.092,0.10101 -0.10551,0.0986 -0.11744,0.10653 -0.0428,-0.0391 -0.0948,-0.0895 -0.16662,-0.17209 -0.17334,-0.1993 -0.41038,-0.51024 -0.69106,-0.90957 -0.56137,-0.79867 -1.30245,-1.95312 -2.15786,-3.34331 -1.71082,-2.78039 -3.87538,-6.50537 -5.97371,-10.27304 -2.09833,-3.76767 -4.13348,-7.5789 -5.59131,-10.52433 -0.72891,-1.47271 -1.3147,-2.73243 -1.68804,-3.65197 -0.18667,-0.45977 -0.31964,-0.83438 -0.3906,-1.09805 -0.0219,-0.0814 -0.0255,-0.12659 -0.0355,-0.183 z m -5.61315,0.20486 c -0.002,0.005 -7.2e-4,0.006 -0.003,0.0109 -0.089,0.24183 -0.24231,0.59751 -0.45069,1.03796 -0.41676,0.8809 -1.05166,2.10682 -1.83008,3.5591 -1.55684,2.90457 -3.69839,6.7089 -5.88631,10.48062 -2.18791,3.77172 -4.42367,7.51167 -6.16764,10.28943 -0.87199,1.38887 -1.62179,2.5409 -2.17698,3.32692 -0.27759,0.39301 -0.50612,0.69396 -0.66921,0.88226 -0.0168,0.0194 -0.0229,0.0213 -0.0382,0.0382 -0.003,-0.004 -0.003,-0.007 -0.006,-0.0109 -0.0993,-0.16215 -0.22967,-0.41682 -0.37417,-0.74023 -0.28899,-0.64682 -0.64349,-1.57262 -1.03522,-2.6823 -0.78347,-2.21936 -1.71317,-5.17302 -2.57577,-8.16161 -0.8626,-2.98859 -1.65965,-6.01272 -2.18244,-8.36921 -0.2614,-1.17824 -0.45411,-2.19083 -0.55176,-2.93905 -0.0488,-0.37412 -0.0713,-0.68415 -0.071,-0.90412 2.7e-4,-0.21996 0.0557,-0.35838 0.0219,-0.30592 -0.0469,0.0727 0.0615,-0.0448 0.25676,-0.1393 0.19529,-0.0945 0.47787,-0.21143 0.83037,-0.33597 0.70499,-0.24908 1.68667,-0.54189 2.84345,-0.85767 2.31357,-0.63159 5.33547,-1.35419 8.34735,-2.01856 3.01189,-0.66437 6.01674,-1.27212 8.28726,-1.67439 1.13527,-0.20113 2.08811,-0.35159 2.76152,-0.43157 0.29004,-0.0344 0.4974,-0.0472 0.6692,-0.0546 z m 2.67137,0.6337 c 0.0592,0.005 0.22853,0.0783 0.43157,0.26222 0.20303,0.1839 0.43903,0.46435 0.68286,0.80032 0.48767,0.67196 1.01089,1.57628 1.48592,2.48017 0.8048,1.53141 1.26221,2.62371 1.44768,3.05377 -0.31857,-0.0447 -0.62573,-0.16849 -0.95328,-0.0765 -1.01526,0.28521 -1.64633,1.08675 -2.04314,1.97758 -0.23264,0.52229 -0.31839,1.05826 -0.44796,1.60337 -0.19625,-0.78342 -0.3086,-1.62148 -0.79759,-2.20702 -0.74654,-0.89396 -1.91489,-1.45581 -3.60553,-1.55967 h -0.008 -0.006 c -0.11821,-0.003 -0.20136,0.0503 -0.31139,0.0628 0.23044,-0.49421 0.68802,-1.50938 1.52143,-2.99915 0.50828,-0.90858 1.06421,-1.80951 1.56513,-2.45831 0.25045,-0.32441 0.48704,-0.5854 0.68286,-0.7457 0.19583,-0.16029 0.33515,-0.19574 0.35509,-0.19393 z m -28.3007,7.78468 c 0.0835,0.14303 0.17229,0.3079 0.28407,0.55994 0.27598,0.62225 0.61648,1.53775 0.98879,2.64132 0.74462,2.20716 1.62433,5.17719 2.45013,8.17801 0.82579,3.00082 1.59924,6.03105 2.13054,8.37194 0.26565,1.17045 0.46885,2.17097 0.58999,2.89808 0.0606,0.36356 0.10184,0.65789 0.11745,0.86587 0.008,0.10399 0.008,0.18833 0.006,0.23764 -9e-4,0.0174 -0.003,0.0248 -0.006,0.0328 -0.2783,0.50099 -0.9457,1.17607 -1.81096,1.84648 -0.8812,0.68275 -1.95976,1.37257 -3.03466,1.96665 -1.0749,0.59409 -2.14751,1.09288 -3.00188,1.39305 -0.42718,0.15009 -0.80045,0.24932 -1.07893,0.28953 -0.23327,0.0337 -0.33254,0.003 -0.37694,-0.006 -0.009,-0.0444 -0.0185,-0.0792 -0.0273,-0.15296 -0.0266,-0.22288 -0.0425,-0.5627 -0.0492,-0.98606 -0.0133,-0.84672 0.0153,-2.04235 0.0792,-3.46349 0.12793,-2.84229 0.39723,-6.58805 0.73477,-10.31948 0.33753,-3.73142 0.74433,-7.44853 1.15541,-10.2266 0.20553,-1.38903 0.41179,-2.54698 0.60638,-3.34058 0.0861,-0.35118 0.16938,-0.59896 0.2431,-0.78666 z m 24.1079,0.54356 c 0.77098,-0.0462 1.50026,0.22252 1.95846,0.89046 0.61181,0.89186 0.72144,1.92222 0.56268,3.0128 -0.15876,1.09058 -0.59324,2.21947 -1.03795,3.22586 -1.3176,2.98174 -3.61466,5.13368 -5.54488,7.86662 -1.25158,1.77207 -2.50695,3.54657 -3.68747,5.38098 -0.18722,0.29092 -0.58703,0.70395 -0.96421,1.10898 -0.29643,0.31831 -0.51554,0.64029 -0.68833,0.98332 -0.10828,0.0139 -0.95828,0.12711 -2.0404,0.14751 -0.57425,0.0109 -1.18049,-0.008 -1.69078,-0.0819 -0.44211,-0.064 -0.74719,-0.18987 -0.94782,-0.31411 0.038,-0.12334 0.10331,-0.29728 0.2076,-0.52718 0.22729,-0.50107 0.59451,-1.20456 1.05707,-2.03767 0.92513,-1.66621 2.22473,-3.84745 3.54544,-6.00922 2.45112,-4.01203 4.62867,-7.41328 4.97946,-7.96222 0.0848,0.21118 0.12238,0.4378 0.24856,0.63097 0.31004,0.47463 0.77944,0.71281 1.2237,0.68833 0.44426,-0.0245 0.83022,-0.26423 1.11717,-0.58726 0.28695,-0.32304 0.48548,-0.74221 0.49986,-1.19639 0.0143,-0.45417 -0.18243,-0.94094 -0.62278,-1.28105 -0.44758,-0.3457 -0.64201,-0.81371 -0.68013,-1.31383 l 1.28105,-2.23161 c 0.3837,-0.21783 0.80356,-0.36815 1.2237,-0.39333 z m 32.0073,0.23218 c 0.0507,0.16224 0.0953,0.28943 0.15296,0.52444 0.18883,0.7704 0.40694,1.89897 0.6337,3.25863 0.4535,2.71932 0.94849,6.37251 1.38485,10.04906 0.43635,3.67655 0.81432,7.37618 1.0243,10.19382 0.10499,1.40882 0.16795,2.60079 0.17754,3.44711 0.005,0.42316 -0.006,0.76002 -0.0273,0.98606 -0.008,0.0841 -0.018,0.13054 -0.0273,0.17754 -0.0131,-0.007 -0.10048,0.0244 -0.34416,-0.0246 -0.2849,-0.0573 -0.67614,-0.18763 -1.12536,-0.37421 -0.89844,-0.37317 -2.03312,-0.96968 -3.15757,-1.64434 -1.12446,-0.67467 -2.24397,-1.42886 -3.11934,-2.11416 -0.87536,-0.6853 -1.50934,-1.35564 -1.63068,-1.62795 0.0308,0.0692 0.0116,0.0439 0.0109,-0.006 -7.9e-4,-0.0494 0.004,-0.13099 0.0137,-0.23217 0.0193,-0.20234 0.0637,-0.48983 0.12565,-0.84129 0.12397,-0.70294 0.3256,-1.66911 0.58454,-2.79976 0.51787,-2.26129 1.25915,-5.1922 2.03767,-8.09605 0.77852,-2.90386 1.59165,-5.77898 2.26165,-7.92944 0.335,-1.07523 0.63586,-1.97136 0.87134,-2.58943 0.0603,-0.15825 0.10197,-0.23843 0.15296,-0.35782 z m -24.38925,0.32777 c 0.12224,-0.0148 0.26785,-0.01 0.43977,0.0246 0.60004,0.12047 1.19685,0.68799 1.73448,1.61157 0.53763,0.92359 1.00328,2.16773 1.38758,3.50721 0.7686,2.67895 1.22579,5.73419 1.46407,7.4405 0.12207,0.87038 0.20814,2.07007 0.0874,3.15758 -0.12073,1.08751 -0.45898,2.0269 -1.05981,2.46924 -0.37251,0.27425 -0.6814,0.38114 -0.93689,0.3906 -0.2555,0.009 -0.47689,-0.0696 -0.71018,-0.24583 -0.46659,-0.35253 -0.91666,-1.12532 -1.27013,-2.06498 -0.70621,-1.87743 -1.06873,-4.35451 -1.26466,-5.42469 v -0.006 c -0.33797,-2.05946 -0.85331,-4.79743 -0.96968,-7.02806 -0.0582,-1.11622 -0.0124,-2.10349 0.18028,-2.78336 0.0963,-0.33994 0.22726,-0.59766 0.37694,-0.76481 0.14969,-0.16716 0.31047,-0.25631 0.54083,-0.28407 z m -3.29414,7.47055 c 0.006,0.0884 0.0187,0.10905 0.0219,0.21852 0.10405,3.60713 0.74003,5.98389 1.66346,9.42901 0.42392,1.58159 1.03291,3.48227 2.24526,4.77733 l -4.16275,0.003 c 0.29433,-0.8995 0.38817,-1.99107 0.30046,-3.04558 -0.10234,-1.23053 -0.3035,-2.24103 -0.30865,-2.26712 0.0195,-0.11667 0.0498,-0.20406 0.006,-0.36328 -0.0139,-0.05 -0.0353,-0.12282 -0.12565,-0.20214 -0.0904,-0.0793 -0.26536,-0.11149 -0.36328,-0.0847 -0.19585,0.0536 -0.2079,0.12815 -0.24584,0.17755 -0.15174,0.19767 -0.2506,0.44561 -0.40152,0.78393 -0.30184,0.67666 -0.70668,1.628 -0.89592,1.92295 -0.19592,0.30535 -0.41315,0.41057 -0.71838,0.46981 -0.30523,0.0592 -0.68925,0.0394 -1.08712,0.03 l -2.33818,-0.0519 c -0.31196,-0.007 -0.49365,-0.0762 -0.57634,-0.13659 -0.0827,-0.0604 -0.10951,-0.10971 -0.12019,-0.24856 -0.0213,-0.27769 0.17235,-0.85894 0.54356,-1.52416 0.74241,-1.33043 2.08185,-3.03551 2.95818,-4.40038 1.04781,-1.63198 2.63172,-3.60971 3.60553,-5.48751 z m 9.98077,0.71565 c 0.73551,1.09139 1.81548,2.66762 3.54817,5.43288 1.12513,1.79565 2.2238,3.62443 2.98002,5.05594 0.37812,0.71575 0.67094,1.33393 0.83583,1.78365 0.0824,0.22485 0.13195,0.40788 0.14751,0.5217 0.007,0.049 0.001,0.0716 0,0.0847 -0.30539,0.33957 -0.8868,0.61017 -1.62249,0.77574 -0.76031,0.1711 -1.66168,0.23931 -2.52114,0.24856 -1.47756,0.0159 -2.4516,-0.1237 -2.79975,-0.16662 1.01105,-1.63487 1.05963,-3.87419 0.93689,-6.34519 -0.12343,-2.48476 -0.83608,-4.96811 -1.50504,-7.39134 z m -3.76123,15.27434 c 2.0508,0.0102 3.96747,0.0364 5.61862,0.082 1.65115,0.0456 3.03694,0.11152 4.01252,0.19393 0.48779,0.0412 0.87325,0.0891 1.1281,0.13658 0.0402,0.007 0.0514,0.0118 0.0847,0.0191 -0.0825,0.14974 -0.21896,0.35953 -0.40972,0.61731 -0.39775,0.53753 -1.0048,1.26723 -1.75086,2.11416 -1.49213,1.69385 -3.54332,3.86456 -5.64048,6.00102 -2.09716,2.13647 -4.24082,4.24062 -5.92181,5.8071 -0.8405,0.78323 -1.56591,1.43181 -2.10596,1.87924 -0.27002,0.22372 -0.49416,0.39762 -0.65555,0.50805 -0.072,0.0493 -0.12426,0.0825 -0.16389,0.1038 -0.0438,-0.0214 -0.11007,-0.0599 -0.1912,-0.112 -0.17187,-0.11042 -0.40686,-0.27983 -0.69106,-0.50259 -0.5684,-0.44552 -1.32927,-1.09278 -2.20976,-1.87105 -1.76097,-1.55659 -4.00515,-3.64509 -6.20862,-5.75524 -2.20347,-2.11015 -4.36761,-4.24181 -5.96825,-5.88904 -0.80032,-0.82361 -1.45929,-1.52774 -1.90929,-2.0404 -0.19387,-0.22087 -0.32691,-0.38711 -0.4343,-0.52717 0.23977,-0.0514 0.59369,-0.10543 1.05434,-0.1557 0.95194,-0.1039 2.31659,-0.19852 3.95243,-0.27861 3.27168,-0.16017 7.63071,-0.2667 11.99386,-0.31138 2.18157,-0.0223 4.36541,-0.0293 6.41621,-0.0191 z m 13.8813,0.96967 c 0.0932,-0.0116 0.38804,0.0304 0.75935,0.16116 0.37131,0.13078 0.83119,0.33698 1.33841,0.59546 1.01446,0.51696 2.22113,1.24489 3.37063,2.01036 1.1495,0.76546 2.24468,1.56958 3.03193,2.23706 0.39362,0.33375 0.70999,0.63433 0.91231,0.86588 0.10115,0.11577 0.17146,0.21468 0.20759,0.27861 0.0113,0.0201 0.0128,0.0276 0.0164,0.0382 -0.008,0.0242 -0.0565,0.14249 -0.22398,0.31138 -0.17777,0.17925 -0.45347,0.39982 -0.80851,0.63916 -0.71009,0.47871 -1.7357,1.04481 -2.96364,1.64981 -2.45589,1.21001 -5.72733,2.58753 -9.02749,3.87048 -3.30016,1.28296 -6.63158,2.47002 -9.19957,3.30234 -1.284,0.41616 -2.37686,0.74584 -3.17669,0.95055 -0.3757,0.0962 -0.67358,0.1585 -0.90139,0.19667 0.0558,-0.0988 0.084,-0.16555 0.17482,-0.30046 0.33323,-0.49501 0.88448,-1.19999 1.58425,-2.03495 1.39952,-1.6699 3.3951,-3.86621 5.47931,-6.05019 2.08422,-2.18397 4.25722,-4.35879 6.02288,-5.99829 0.88283,-0.81975 1.66374,-1.50718 2.27258,-1.9885 0.30442,-0.24066 0.56749,-0.42781 0.77027,-0.55449 0.20278,-0.12667 0.36712,-0.18109 0.36055,-0.18028 z m -40.36284,0.35236 c 0.31533,0.0327 0.90039,0.29226 1.60064,0.75935 0.70024,0.46709 1.53003,1.1268 2.42554,1.91476 1.79101,1.5759 3.85425,3.66511 5.79343,5.76612 1.93919,2.10101 3.75712,4.21586 5.05048,5.85079 0.64668,0.81747 1.16188,1.51743 1.49411,2.02402 0.0969,0.14775 0.14156,0.23577 0.20486,0.34689 -0.18115,-0.0388 -0.36,-0.0761 -0.6337,-0.15296 -0.75445,-0.21197 -1.824,-0.56181 -3.09748,-1.00518 -2.54696,-0.88674 -5.91225,-2.15336 -9.27605,-3.49627 -3.36381,-1.34291 -6.72583,-2.76067 -9.26513,-3.94151 -1.26965,-0.59041 -2.33332,-1.12027 -3.08109,-1.54873 -0.37389,-0.21424 -0.66943,-0.40596 -0.86314,-0.55449 -0.1623,-0.12444 -0.19255,-0.1896 -0.19667,-0.16662 0.0336,-0.0526 0.0903,-0.12929 0.18301,-0.22671 0.20251,-0.21285 0.52993,-0.49263 0.93689,-0.80578 0.81393,-0.62632 1.95103,-1.38904 3.14392,-2.11416 1.19288,-0.72512 2.44462,-1.41352 3.48261,-1.90929 0.519,-0.24789 0.98504,-0.45068 1.35754,-0.57907 0.3725,-0.12839 0.67032,-0.16841 0.74023,-0.16116 z"
         style="color:#000000;font-style:normal;font-variant:normal;font-weight:normal;font-stretch:normal;font-size:medium;line-height:normal;font-family:sans-serif;text-indent:0;text-align:start;text-decoration:none;text-decoration-line:none;text-decoration-style:solid;text-decoration-color:#000000;letter-spacing:normal;word-spacing:normal;text-transform:none;writing-mode:lr-tb;direction:ltr;baseline-shift:baseline;text-anchor:start;white-space:normal;clip-rule:nonzero;display:inline;overflow:visible;visibility:visible;opacity:1;isolation:auto;mix-blend-mode:normal;color-interpolation:sRGB;color-interpolation-filters:linearRGB;solid-color:#000000;solid-opacity:1;fill:#453748;fill-opacity:1;fill-rule:nonzero;stroke:none;stroke-width:0.74587172;stroke-linecap:butt;stroke-linejoin:miter;stroke-miterlimit:4;stroke-dasharray:none;stroke-dashoffset:0;stroke-opacity:1;color-rendering:auto;image-rendering:auto;shape-rendering:auto;text-rendering:auto;enable-background:accumulate"
         inkscape:connector-curvature="0" />
    </g>
    <g
       transform="matrix(0.22104153,0,0,0.22104153,28.746106,-22.809424)"
       style="font-style:normal;font-weight:normal;font-size:60px;line-height:125%;font-family:sans-serif;letter-spacing:0px;word-spacing:0px;display:inline;fill:#483745;fill-opacity:1;stroke:none;stroke-width:1px;stroke-linecap:butt;stroke-linejoin:miter;stroke-opacity:1"
       id="text4724">
      <path
         inkscape:connector-curvature="0"
         d="m 53.889511,967.78766 h 20.888672 v 9.49219 h -8.554688 v 8.99414 h 7.617188 v 9.02343 h -7.617188 v 19.92188 H 53.889511 Z"
         style="font-style:normal;font-variant:normal;font-weight:normal;font-stretch:condensed;font-family:Impact;-inkscape-font-specification:'Impact Condensed';fill:#483745"
         id="path4729" />
      <path
         inkscape:connector-curvature="0"
         d="m 104.22154,989.99469 v 9.52148 q 0,5.24413 -0.52734,7.70513 -0.52735,2.4316 -2.25586,4.5703 -1.728516,2.1093 -4.453126,3.1347 -2.695312,0.9961 -6.210937,0.9961 -3.925782,0 -6.650391,-0.8496 -2.724609,-0.8789 -4.248047,-2.6074 -1.49414,-1.7578 -2.138672,-4.2188 -0.644531,-2.4902 -0.644531,-7.4414 v -9.9609 q 0,-5.41992 1.171875,-8.4668 1.171875,-3.04687 4.21875,-4.89258 3.046875,-1.8457 7.792969,-1.8457 3.984375,0 6.826172,1.20117 2.871093,1.17188 4.423828,3.07617 1.55273,1.9043 2.10937,3.92579 0.58594,2.02148 0.58594,6.15234 z M 92.385605,987.065 q 0,-2.98828 -0.322266,-3.75 -0.322265,-0.79101 -1.376953,-0.79101 -1.054687,0 -1.40625,0.79101 -0.351562,0.76172 -0.351562,3.75 v 17.5488 q 0,2.7539 0.351562,3.6035 0.351563,0.8204 1.376953,0.8204 1.054688,0 1.376953,-0.7618 0.351563,-0.7617 0.351563,-3.2812 z"
         style="font-style:normal;font-variant:normal;font-weight:normal;font-stretch:condensed;font-family:Impact;-inkscape-font-specification:'Impact Condensed';fill:#483745"
         id="path4731" />
      <path
         inkscape:connector-curvature="0"
         d="m 131.58482,976.34235 -4.71679,18.57421 5.71289,20.30274 h -11.51367 q -1.69922,-7.6758 -2.57813,-13.2129 -1.17187,6.9141 -2.54883,13.2129 h -9.90234 l 5.09765,-20.30274 -5.09765,-18.57421 h 9.90234 q 2.37305,11.89453 2.54883,13.50586 1.69922,-9.93165 2.57813,-13.50586 z"
         style="font-style:normal;font-variant:normal;font-weight:normal;font-stretch:condensed;font-family:Impact;-inkscape-font-specification:'Impact Condensed';fill:#483745"
         id="path4733" />
      <path
         inkscape:connector-curvature="0"
         d="m 163.31334,988.47125 h -12.33399 v -8.26172 q 0,-3.60351 -0.41015,-4.48242 -0.38086,-0.9082 -1.72852,-0.9082 -1.52343,0 -1.93359,1.08398 -0.41016,1.08399 -0.41016,4.6875 v 22.03121 q 0,3.4571 0.41016,4.5118 0.41016,1.0546 1.8457,1.0546 1.37696,0 1.78711,-1.0546 0.43945,-1.0547 0.43945,-4.9512 v -5.94728 h 12.33399 v 1.84571 q 0,7.35347 -1.05469,10.42967 -1.02539,3.0762 -4.59961,5.3906 -3.54492,2.3145 -8.75976,2.3145 -5.41993,0 -8.93555,-1.9629 -3.51563,-1.9629 -4.6582,-5.4199 -1.14258,-3.4863 -1.14258,-10.459 v -13.85743 q 0,-5.12695 0.35156,-7.67578 0.35156,-2.57812 2.08008,-4.95117 1.75781,-2.37305 4.83398,-3.7207 3.10547,-1.37696 7.11914,-1.37696 5.44922,0 8.99414,2.10938 3.54493,2.10937 4.65821,5.27344 1.11328,3.13476 1.11328,9.78515 z"
         style="font-style:normal;font-variant:normal;font-weight:normal;font-stretch:condensed;font-family:Impact;-inkscape-font-specification:'Impact Condensed';fill:#483745"
         id="path4735" />
      <path
         inkscape:connector-curvature="0"
         d="m 194.22154,989.99469 v 9.52148 q 0,5.24413 -0.52734,7.70513 -0.52735,2.4316 -2.25586,4.5703 -1.72852,2.1093 -4.45313,3.1347 -2.69531,0.9961 -6.21093,0.9961 -3.92578,0 -6.65039,-0.8496 -2.72461,-0.8789 -4.24805,-2.6074 -1.49414,-1.7578 -2.13867,-4.2188 -0.64453,-2.4902 -0.64453,-7.4414 v -9.9609 q 0,-5.41992 1.17187,-8.4668 1.17188,-3.04687 4.21875,-4.89258 3.04688,-1.8457 7.79297,-1.8457 3.98437,0 6.82617,1.20117 2.8711,1.17188 4.42383,3.07617 1.55273,1.9043 2.10937,3.92579 0.58594,2.02148 0.58594,6.15234 z M 182.3856,987.065 q 0,-2.98828 -0.32226,-3.75 -0.32227,-0.79101 -1.37695,-0.79101 -1.05469,0 -1.40625,0.79101 -0.35157,0.76172 -0.35157,3.75 v 17.5488 q 0,2.7539 0.35157,3.6035 0.35156,0.8204 1.37695,0.8204 1.05469,0 1.37695,-0.7618 0.35156,-0.7617 0.35156,-3.2812 z"
         style="font-style:normal;font-variant:normal;font-weight:normal;font-stretch:condensed;font-family:Impact;-inkscape-font-specification:'Impact Condensed';fill:#483745"
         id="path4737" />
      <path
         inkscape:connector-curvature="0"
         d="m 225.24693,976.34235 v 38.87695 h -12.04101 l 0.20508,-3.2227 q -1.23047,1.9629 -3.04688,2.959 -1.78711,0.9668 -4.13086,0.9668 -2.66601,0 -4.42383,-0.9375 -1.75781,-0.9375 -2.60742,-2.4902 -0.82031,-1.5527 -1.02539,-3.2227 -0.20508,-1.6992 -0.20508,-6.709 v -26.22065 h 11.83594 v 26.45505 q 0,4.541 0.26367,5.3906 0.29297,0.8497 1.52344,0.8497 1.31836,0 1.55273,-0.8789 0.26368,-0.879 0.26368,-5.6543 v -26.16215 z"
         style="font-style:normal;font-variant:normal;font-weight:normal;font-stretch:condensed;font-family:Impact;-inkscape-font-specification:'Impact Condensed';fill:#483745"
         id="path4739" />
      <path
         inkscape:connector-curvature="0"
         d="m 241.38951,976.34235 -0.46875,5.09765 q 2.57813,-5.47851 7.4707,-5.80078 v 13.68164 q -3.25195,0 -4.77539,0.87891 -1.52343,0.8789 -1.875,2.46094 -0.35156,1.55273 -0.35156,7.20703 v 15.35156 h -11.83594 v -38.87695 z"
         style="font-style:normal;font-variant:normal;font-weight:normal;font-stretch:condensed;font-family:Impact;-inkscape-font-specification:'Impact Condensed';fill:#483745"
         id="path4741" />
      <path
         inkscape:connector-curvature="0"
         d="m 264.53404,971.1568 v 6.12305 h 3.19336 v 6.15234 h -3.19336 v 20.80081 q 0,3.8379 0.38086,4.2773 0.41016,0.4395 3.31055,0.4395 v 6.2695 h -4.77539 q -4.04297,0 -5.77149,-0.3223 -1.72851,-0.3515 -3.04687,-1.5527 -1.31836,-1.2305 -1.64063,-2.7832 -0.32226,-1.582 -0.32226,-7.3828 v -19.74611 h -2.54883 v -6.15234 h 2.54883 v -6.12305 z"
         style="font-style:normal;font-variant:normal;font-weight:normal;font-stretch:condensed;font-family:Impact;-inkscape-font-specification:'Impact Condensed';fill:#483745"
         id="path4743" />
      <path
         inkscape:connector-curvature="0"
         d="m 270.68639,967.78766 h 9.22851 q 8.93555,0 12.07031,0.82031 3.16407,0.82031 4.80469,2.69531 1.64063,1.875 2.05078,4.18946 0.41016,2.28515 0.41016,9.02343 v 16.61133 q 0,6.3867 -0.61524,8.5547 -0.58593,2.1387 -2.08007,3.3691 -1.49414,1.2012 -3.69141,1.6992 -2.19727,0.4688 -6.62109,0.4688 h -15.55664 z m 12.33398,8.11523 v 31.20121 q 2.66602,0 3.28125,-1.0547 0.61523,-1.084 0.61523,-5.8301 v -18.42774 q 0,-3.22265 -0.20507,-4.13085 -0.20508,-0.90821 -0.9375,-1.31836 -0.73243,-0.43946 -2.75391,-0.43946 z"
         style="font-style:normal;font-variant:normal;font-weight:normal;font-stretch:condensed;font-family:Impact;-inkscape-font-specification:'Impact Condensed';fill:#483745"
         id="path4745" />
      <path
         inkscape:connector-curvature="0"
         d="m 330.30553,996.4693 h -15.32227 v 8.4082 q 0,2.6367 0.38086,3.3984 0.38086,0.7618 1.46484,0.7618 1.34766,0 1.78711,-0.9961 0.46875,-1.0254 0.46875,-3.9258 v -5.12697 h 11.22071 v 2.87107 q 0,3.6035 -0.46875,5.5371 -0.43946,1.9336 -2.10938,4.1309 -1.66992,2.1973 -4.24805,3.3105 -2.54882,1.084 -6.41601,1.084 -3.75,0 -6.62109,-1.084 -2.8711,-1.0839 -4.48243,-2.9589 -1.58203,-1.9043 -2.19726,-4.1602 -0.61524,-2.2852 -0.61524,-6.6211 v -11.33789 q 0,-5.09765 1.37696,-8.02734 1.37695,-2.95898 4.51172,-4.51172 3.13476,-1.58203 7.20703,-1.58203 4.98047,0 8.20312,1.9043 3.25195,1.875 4.54102,5.00976 1.31836,3.10547 1.31836,8.75977 z m -11.86524,-6.32813 v -2.84179 q 0,-3.01758 -0.32226,-3.89649 -0.32227,-0.8789 -1.31836,-0.8789 -1.23047,0 -1.52344,0.76172 -0.29297,0.73242 -0.29297,4.01367 v 2.84179 z"
         style="font-style:normal;font-variant:normal;font-weight:normal;font-stretch:condensed;font-family:Impact;-inkscape-font-specification:'Impact Condensed';fill:#483745"
         id="path4747" />
      <path
         inkscape:connector-curvature="0"
         d="m 358.37193,988.76422 h -10.48828 v -2.10937 q 0,-2.69532 -0.32226,-3.39844 -0.29297,-0.73242 -1.52344,-0.73242 -0.9961,0 -1.49414,0.67382 -0.49805,0.64454 -0.49805,1.9629 0,1.7871 0.23438,2.63671 0.26367,0.82032 1.49414,1.81641 1.25976,0.99609 5.12695,2.90039 5.15625,2.51953 6.76758,4.74609 1.61133,2.22657 1.61133,6.47459 0,4.7461 -1.23047,7.1778 -1.23047,2.4023 -4.13086,3.7207 -2.8711,1.289 -6.94336,1.289 -4.51172,0 -7.73438,-1.4062 -3.19336,-1.4063 -4.39453,-3.8086 -1.20117,-2.4024 -1.20117,-7.2656 v -1.875 h 10.48828 v 2.4609 q 0,3.1348 0.38086,4.0723 0.41016,0.9375 1.58203,0.9375 1.25977,0 1.75781,-0.6153 0.49805,-0.6445 0.49805,-2.666 0,-2.7832 -0.64453,-3.4863 -0.67383,-0.7031 -6.88477,-4.16018 -5.21484,-2.92968 -6.35742,-5.30273 -1.14258,-2.40234 -1.14258,-5.68359 0,-4.65821 1.23047,-6.85547 1.23047,-2.22657 4.16016,-3.42774 2.95898,-1.20117 6.85547,-1.20117 3.86719,0 6.5625,0.99609 2.72461,0.9668 4.16015,2.57813 1.46485,1.61133 1.75782,2.98828 0.32226,1.37695 0.32226,4.30664 z"
         style="font-style:normal;font-variant:normal;font-weight:normal;font-stretch:condensed;font-family:Impact;-inkscape-font-specification:'Impact Condensed';fill:#483745"
         id="path4749" />
      <path
         inkscape:connector-curvature="0"
         d="m 374.6317,967.78766 v 6.18164 h -12.1875 v -6.18164 z m 0,8.55469 v 38.87695 h -12.1875 v -38.87695 z"
         style="font-style:normal;font-variant:normal;font-weight:normal;font-stretch:condensed;font-family:Impact;-inkscape-font-specification:'Impact Condensed';fill:#483745"
         id="path4751" />
      <path
         inkscape:connector-curvature="0"
         d="m 405.74498,976.34235 v 29.94145 q 0,6.0644 -0.29297,7.8515 -0.26367,1.7578 -1.96289,3.7207 -1.69922,1.9922 -4.74609,3.0176 -3.01758,1.0547 -7.61719,1.0547 -5.6543,0 -9.08203,-1.9336 -3.42774,-1.9043 -3.54492,-7.5293 h 11.48437 q 0,2.5781 1.875,2.5781 1.34766,0 1.78711,-0.791 0.43945,-0.791 0.43945,-3.3105 v -2.9297 q -1.52343,1.3769 -3.22265,2.08 -1.66992,0.7032 -3.51563,0.7032 -3.19336,0 -5.27344,-1.2891 -2.05078,-1.2891 -2.8125,-3.3691 -0.76171,-2.1094 -0.76171,-5.9766 v -14.12109 q 0,-5.53711 1.99218,-7.96875 1.99219,-2.43164 6.06446,-2.43164 2.22656,0 4.04297,0.9082 1.8457,0.90821 3.28125,2.72461 l 0.8496,-2.92968 z m -11.86523,10.3125 q 0,-2.66602 -0.32227,-3.39844 -0.29297,-0.73242 -1.34766,-0.73242 -1.02539,0 -1.46484,0.84961 -0.41016,0.82031 -0.41016,3.28125 v 13.0664 q 0,2.60745 0.32227,3.39845 0.32226,0.7617 1.34766,0.7617 1.17187,0 1.52343,-0.9375 0.35157,-0.9375 0.35157,-4.24804 z"
         style="font-style:normal;font-variant:normal;font-weight:normal;font-stretch:condensed;font-family:Impact;-inkscape-font-specification:'Impact Condensed';fill:#483745"
         id="path4753" />
      <path
         inkscape:connector-curvature="0"
         d="m 422.06334,976.34235 -0.20508,3.57421 q 1.28906,-2.13867 3.13477,-3.19335 1.875,-1.08399 4.30664,-1.08399 3.04687,0 4.98047,1.43555 1.93359,1.43554 2.49023,3.63281 0.55664,2.16797 0.55664,7.26563 v 27.24609 h -11.83594 v -26.92383 q 0,-4.01367 -0.26367,-4.89258 -0.26367,-0.8789 -1.46484,-0.8789 -1.25977,0 -1.58203,1.02539 -0.32227,0.99609 -0.32227,5.39062 v 26.2793 h -11.83594 v -38.87695 z"
         style="font-style:normal;font-variant:normal;font-weight:normal;font-stretch:condensed;font-family:Impact;-inkscape-font-specification:'Impact Condensed';fill:#483745"
         id="path4755" />
      <path
         inkscape:connector-curvature="0"
         d="m 465.5985,988.76422 h -10.48829 v -2.10937 q 0,-2.69532 -0.32226,-3.39844 -0.29297,-0.73242 -1.52344,-0.73242 -0.99609,0 -1.49414,0.67382 -0.49805,0.64454 -0.49805,1.9629 0,1.7871 0.23438,2.63671 0.26367,0.82032 1.49414,1.81641 1.25976,0.99609 5.12695,2.90039 5.15625,2.51953 6.76758,4.74609 1.61133,2.22657 1.61133,6.47459 0,4.7461 -1.23047,7.1778 -1.23047,2.4023 -4.13086,3.7207 -2.87109,1.289 -6.94336,1.289 -4.51172,0 -7.73437,-1.4062 -3.19336,-1.4063 -4.39454,-3.8086 -1.20117,-2.4024 -1.20117,-7.2656 v -1.875 h 10.48828 v 2.4609 q 0,3.1348 0.38086,4.0723 0.41016,0.9375 1.58203,0.9375 1.25977,0 1.75782,-0.6153 0.49804,-0.6445 0.49804,-2.666 0,-2.7832 -0.64453,-3.4863 -0.67383,-0.7031 -6.88476,-4.16018 -5.21485,-2.92968 -6.35742,-5.30273 -1.14258,-2.40234 -1.14258,-5.68359 0,-4.65821 1.23047,-6.85547 1.23046,-2.22657 4.16015,-3.42774 2.95899,-1.20117 6.85547,-1.20117 3.86719,0 6.5625,0.99609 2.72461,0.9668 4.16016,2.57813 1.46484,1.61133 1.75781,2.98828 0.32227,1.37695 0.32227,4.30664 z"
         style="font-style:normal;font-variant:normal;font-weight:normal;font-stretch:condensed;font-family:Impact;-inkscape-font-specification:'Impact Condensed';fill:#483745"
         id="path4757" />
      <path
         inkscape:connector-curvature="0"
         d="m 477.55162,1005.5513 v 9.668 h -8.93555 v -9.668 z"
         style="font-style:normal;font-variant:normal;font-weight:normal;font-stretch:condensed;font-family:Impact;-inkscape-font-specification:'Impact Condensed';fill:#483745"
         id="path4759" />
      <path
         inkscape:connector-curvature="0"
         d="m 507.61021,996.4693 h -15.32226 v 8.4082 q 0,2.6367 0.38086,3.3984 0.38086,0.7618 1.46484,0.7618 1.34766,0 1.78711,-0.9961 0.46875,-1.0254 0.46875,-3.9258 v -5.12697 h 11.2207 v 2.87107 q 0,3.6035 -0.46875,5.5371 -0.43945,1.9336 -2.10937,4.1309 -1.66992,2.1973 -4.24805,3.3105 -2.54883,1.084 -6.41601,1.084 -3.75,0 -6.6211,-1.084 -2.87109,-1.0839 -4.48242,-2.9589 -1.58203,-1.9043 -2.19726,-4.1602 -0.61524,-2.2852 -0.61524,-6.6211 v -11.33789 q 0,-5.09765 1.37695,-8.02734 1.37696,-2.95898 4.51172,-4.51172 3.13477,-1.58203 7.20703,-1.58203 4.98047,0 8.20313,1.9043 3.25195,1.875 4.54101,5.00976 1.31836,3.10547 1.31836,8.75977 z m -11.86523,-6.32813 v -2.84179 q 0,-3.01758 -0.32227,-3.89649 -0.32226,-0.8789 -1.31836,-0.8789 -1.23046,0 -1.52343,0.76172 -0.29297,0.73242 -0.29297,4.01367 v 2.84179 z"
         style="font-style:normal;font-variant:normal;font-weight:normal;font-stretch:condensed;font-family:Impact;-inkscape-font-specification:'Impact Condensed';fill:#483745"
         id="path4761" />
      <path
         inkscape:connector-curvature="0"
         d="m 523.98717,971.1568 v 6.12305 h 3.19336 v 6.15234 h -3.19336 v 20.80081 q 0,3.8379 0.38086,4.2773 0.41015,0.4395 3.31054,0.4395 v 6.2695 h -4.77539 q -4.04297,0 -5.77148,-0.3223 -1.72852,-0.3515 -3.04688,-1.5527 -1.31836,-1.2305 -1.64062,-2.7832 -0.32227,-1.582 -0.32227,-7.3828 v -19.74611 h -2.54883 v -6.15234 h 2.54883 v -6.12305 z"
         style="font-style:normal;font-variant:normal;font-weight:normal;font-stretch:condensed;font-family:Impact;-inkscape-font-specification:'Impact Condensed';fill:#483745"
         id="path4763" />
      <path
         inkscape:connector-curvature="0"
         d="m 553.95787,988.76422 h -10.48828 v -2.10937 q 0,-2.69532 -0.32227,-3.39844 -0.29297,-0.73242 -1.52343,-0.73242 -0.9961,0 -1.49414,0.67382 -0.49805,0.64454 -0.49805,1.9629 0,1.7871 0.23437,2.63671 0.26368,0.82032 1.49414,1.81641 1.25977,0.99609 5.12696,2.90039 5.15625,2.51953 6.76758,4.74609 1.61132,2.22657 1.61132,6.47459 0,4.7461 -1.23047,7.1778 -1.23046,2.4023 -4.13085,3.7207 -2.8711,1.289 -6.94336,1.289 -4.51172,0 -7.73438,-1.4062 -3.19336,-1.4063 -4.39453,-3.8086 -1.20117,-2.4024 -1.20117,-7.2656 v -1.875 h 10.48828 v 2.4609 q 0,3.1348 0.38086,4.0723 0.41015,0.9375 1.58203,0.9375 1.25977,0 1.75781,-0.6153 0.49805,-0.6445 0.49805,-2.666 0,-2.7832 -0.64453,-3.4863 -0.67383,-0.7031 -6.88477,-4.16018 -5.21484,-2.92968 -6.35742,-5.30273 -1.14258,-2.40234 -1.14258,-5.68359 0,-4.65821 1.23047,-6.85547 1.23047,-2.22657 4.16016,-3.42774 2.95898,-1.20117 6.85547,-1.20117 3.86718,0 6.5625,0.99609 2.72461,0.9668 4.16015,2.57813 1.46485,1.61133 1.75781,2.98828 0.32227,1.37695 0.32227,4.30664 z"
         style="font-style:normal;font-variant:normal;font-weight:normal;font-stretch:condensed;font-family:Impact;-inkscape-font-specification:'Impact Condensed';fill:#483745"
         id="path4765" />
      <path
         inkscape:connector-curvature="0"
         d="m 582.81529,976.34235 -3.39844,28.12495 q -0.79101,6.6797 -1.34765,9.1114 -0.52735,2.4316 -1.78711,4.0136 -1.25977,1.5821 -3.51563,2.3145 -2.22656,0.7617 -7.14843,0.7617 h -7.17774 v -6.2109 q 2.75391,0 3.54492,-0.2637 0.79102,-0.293 0.79102,-1.2598 0,-0.4687 -0.73242,-4.0722 l -6.47461,-32.51955 h 10.75195 l 3.86719,26.22065 1.875,-26.22065 z"
         style="font-style:normal;font-variant:normal;font-weight:normal;font-stretch:condensed;font-family:Impact;-inkscape-font-specification:'Impact Condensed';fill:#483745"
         id="path4767" />
      <path
         inkscape:connector-curvature="0"
         d="m 591.80943,1005.5513 v 9.668 h -8.93554 v -9.668 z"
         style="font-style:normal;font-variant:normal;font-weight:normal;font-stretch:condensed;font-family:Impact;-inkscape-font-specification:'Impact Condensed';fill:#483745"
         id="path4769" />
      <path
         inkscape:connector-curvature="0"
         d="m 621.2235,991.02008 h -11.16211 v -4.48242 q 0,-2.34375 -0.38086,-3.16406 -0.38086,-0.84961 -1.40625,-0.84961 -1.02539,0 -1.37696,0.73242 -0.35156,0.73242 -0.35156,3.28125 v 18.33984 q 0,2.0801 0.52734,3.1348 0.52735,1.0254 1.55274,1.0254 1.20117,0 1.61133,-1.084 0.43945,-1.084 0.43945,-4.1016 v -4.62889 h 10.54688 q -0.0293,4.65819 -0.35157,7.00199 -0.29297,2.3144 -1.96289,4.7753 -1.64062,2.4317 -4.30664,3.6915 -2.66601,1.2304 -6.5918,1.2304 -5.00976,0 -7.93945,-1.6992 -2.92969,-1.7285 -4.16015,-4.8047 -1.20118,-3.1055 -1.20118,-8.789 v -11.04497 q 0,-4.95117 0.9961,-7.4707 0.99609,-2.51953 4.24804,-4.48242 3.25196,-1.99219 7.91016,-1.99219 4.62891,0 7.91016,1.96289 3.28125,1.96289 4.36523,4.95117 1.08399,2.98828 1.08399,8.4668 z"
         style="font-style:normal;font-variant:normal;font-weight:normal;font-stretch:condensed;font-family:Impact;-inkscape-font-specification:'Impact Condensed';fill:#483745"
         id="path4771" />
      <path
         inkscape:connector-curvature="0"
         d="m 651.48717,989.99469 v 9.52148 q 0,5.24413 -0.52735,7.70513 -0.52734,2.4316 -2.25586,4.5703 -1.72851,2.1093 -4.45312,3.1347 -2.69531,0.9961 -6.21094,0.9961 -3.92578,0 -6.65039,-0.8496 -2.72461,-0.8789 -4.24805,-2.6074 -1.49414,-1.7578 -2.13867,-4.2188 -0.64453,-2.4902 -0.64453,-7.4414 v -9.9609 q 0,-5.41992 1.17188,-8.4668 1.17187,-3.04687 4.21875,-4.89258 3.04687,-1.8457 7.79296,-1.8457 3.98438,0 6.82618,1.20117 2.87109,1.17188 4.42382,3.07617 1.55274,1.9043 2.10938,3.92579 0.58594,2.02148 0.58594,6.15234 z M 639.65123,987.065 q 0,-2.98828 -0.32227,-3.75 -0.32226,-0.79101 -1.37695,-0.79101 -1.05469,0 -1.40625,0.79101 -0.35156,0.76172 -0.35156,3.75 v 17.5488 q 0,2.7539 0.35156,3.6035 0.35156,0.8204 1.37695,0.8204 1.05469,0 1.37696,-0.7618 0.35156,-0.7617 0.35156,-3.2812 z"
         style="font-style:normal;font-variant:normal;font-weight:normal;font-stretch:condensed;font-family:Impact;-inkscape-font-specification:'Impact Condensed';fill:#483745"
         id="path4773" />
      <path
         inkscape:connector-curvature="0"
         d="m 667.1024,976.34235 -0.20508,3.6914 q 1.37696,-2.19726 3.28125,-3.28125 1.9043,-1.11328 4.33594,-1.11328 4.74609,0 7.4707,4.39453 1.49414,-2.19726 3.36914,-3.28125 1.875,-1.11328 4.16016,-1.11328 3.01758,0 4.98047,1.46484 1.99219,1.46485 2.54883,3.60352 0.55664,2.10938 0.55664,6.88477 v 27.62695 h -11.48438 v -25.3418 q 0,-4.98047 -0.35156,-6.15234 -0.32226,-1.20117 -1.55273,-1.20117 -1.25977,0 -1.64063,1.17187 -0.35156,1.17188 -0.35156,6.18164 v 25.3418 h -11.48438 v -24.69727 q 0,-5.71289 -0.29296,-6.85547 -0.26368,-1.14257 -1.52344,-1.14257 -0.79102,0 -1.34766,0.61523 -0.55664,0.58594 -0.61523,1.46484 -0.0586,0.84961 -0.0586,3.66211 v 26.95313 h -11.48437 v -38.87695 z"
         style="font-style:normal;font-variant:normal;font-weight:normal;font-stretch:condensed;font-family:Impact;-inkscape-font-specification:'Impact Condensed';fill:#483745"
         id="path4775" />
    </g>
  </g>
</svg>
